<?xml version="1.0" encoding="UTF-8" standalone="no"?><!DOCTYPE svg PUBLIC "-//W3C//DTD SVG 1.1//EN" "http://www.w3.org/Graphics/SVG/1.1/DTD/svg11.dtd"><svg width="100%" height="100%" viewBox="0 0 324 576" version="1.1" xmlns="http://www.w3.org/2000/svg" xmlns:xlink="http://www.w3.org/1999/xlink" xml:space="preserve" xmlns:serif="http://www.serif.com/" style="fill-rule:evenodd;clip-rule:evenodd;stroke-linecap:round;stroke-linejoin:round;stroke-miterlimit:1.5;"><path d="M76.247,68.386c-10.844,-3.714 -22.844,1.194 -26.802,10.961c-3.654,9.016 1.499,19.104 11.509,22.532c9.1,3.116 19.17,-1.002 22.492,-9.198c2.99,-7.377 -1.226,-15.63 -9.416,-18.435c-7.28,-2.493 -15.336,0.802 -17.993,7.359c-2.325,5.737 0.954,12.157 7.324,14.338c5.46,1.87 11.502,-0.601 13.495,-5.519c1.661,-4.098 -0.681,-8.684 -5.231,-10.242c-3.64,-1.247 -7.668,0.401 -8.997,3.679c-0.997,2.459 0.409,5.21 3.139,6.145c1.82,0.623 3.834,-0.2 4.498,-1.84c0.332,-0.82 -0.136,-1.737 -1.046,-2.048" style="fill:none;stroke:#d5dbdb;stroke-width:3px;"/><path d="M124.922,90.287c-6.524,3.556 -25.385,17.783 -28.497,23.594c-2.301,4.296 4.943,9.356 9.822,11.277c6.735,2.652 24.135,4.97 30.59,4.636c3.669,-0.19 8.25,-3.361 8.138,-6.641c-0.212,-6.208 -6.067,-25.132 -9.409,-30.609c-1.745,-2.859 -7.531,-3.954 -10.644,-2.257Z" style="fill:#ffab91;stroke:#ffab91;stroke-width:0.24px;"/><path d="M155.447,36.367c0,0 6.681,26.506 2.603,33.799c-5.058,9.044 -16.421,12.135 -25.36,6.898c-8.939,-5.237 -12.09,-16.832 -7.033,-25.876c4.078,-7.293 29.79,-14.821 29.79,-14.821Z" style="fill:#d6eaf8;stroke:#d6eaf8;stroke-width:0.24px;"/><path d="M39.96,15.797c1.462,-6.808 14.929,-12.636 18.541,-11.952c3.612,0.684 0.913,14.167 3.131,16.055c2.218,1.889 9.285,-8.12 10.179,-4.724c1.161,4.408 -1.176,24.958 -3.212,31.172c-1.076,3.283 -7.28,6.838 -9.002,6.109c-1.722,-0.728 0.33,-9.25 -1.329,-10.478c-1.659,-1.228 -6.955,5.497 -8.625,3.109c-3.051,-4.364 -11.16,-22.418 -9.683,-29.292Z" style="fill:#fff24a;stroke:#fff24a;stroke-width:2.3px;"/><ellipse cx="100.426" cy="18.183" rx="20.054" ry="18.183" style="fill:#fff9ae;stroke:#fff9ae;stroke-width:0.24px;"/><ellipse cx="21.008" cy="52.553" rx="20.054" ry="18.183" style="fill:#f5b7b1;stroke:#fff9ae;stroke-width:0.24px;"/><path d="M39.105,101.412l0,16.485c0,4.549 -3.693,8.243 -8.243,8.243l-21.666,0c-4.549,0 -8.243,-3.693 -8.243,-8.243l0,-16.485c0,-4.549 3.693,-8.243 8.243,-8.243l21.666,0c4.549,0 8.243,3.693 8.243,8.243Z" style="fill:#e6e6fa;stroke:#e6e6fa;stroke-width:2.95px;"/><path d="M249.442,63.398c10.824,3.77 22.85,-1.074 26.862,-10.821c3.703,-8.997 -1.394,-19.111 -11.386,-22.592c-9.083,-3.164 -19.175,0.901 -22.541,9.08c-3.03,7.361 1.141,15.637 9.316,18.484c7.266,2.531 15.34,-0.721 18.033,-7.264c2.356,-5.725 -0.887,-12.162 -7.245,-14.377c-5.45,-1.898 -11.505,0.541 -13.525,5.448c-1.683,4.089 0.634,8.687 5.175,10.269c3.633,1.266 7.67,-0.361 9.017,-3.632c1.01,-2.454 -0.38,-5.212 -3.105,-6.161c-1.817,-0.633 -3.835,0.18 -4.508,1.816c-0.337,0.818 0.127,1.737 1.035,2.054" style="fill:none;stroke:#d5dbdb;stroke-width:3px;"/><path d="M200.885,41.713c6.543,-3.522 25.481,-17.649 28.625,-23.445c2.324,-4.284 -4.892,-9.381 -9.761,-11.328c-6.721,-2.687 -24.107,-5.097 -30.564,-4.796c-3.67,0.171 -8.269,3.318 -8.175,6.598c0.178,6.209 5.93,25.163 9.242,30.658c1.729,2.869 7.51,3.993 10.631,2.313Z" style="fill:#ffab91;stroke:#ffab91;stroke-width:0.24px;"/><path d="M313.929,51.644c0,0 -24.156,-13.415 -26.723,-21.302c-3.221,-9.898 2.303,-20.167 12.33,-22.919c10.026,-2.752 20.782,3.05 24.004,12.947c2.567,7.886 -9.611,31.273 -9.611,31.273Z" style="fill:#d6eaf8;stroke:#d6eaf8;stroke-width:0.24px;"/><path d="M285.442,116.177c-1.499,6.8 -14.998,12.558 -18.606,11.855c-3.608,-0.703 -0.835,-14.171 -3.044,-16.071c-2.208,-1.9 -9.329,8.071 -10.205,4.67c-1.137,-4.414 1.312,-24.952 3.382,-31.155c1.093,-3.277 7.318,-6.799 9.035,-6.062c1.718,0.737 -0.381,9.248 1.271,10.485c1.652,1.237 6.985,-5.461 8.642,-3.064c3.028,4.38 11.037,22.476 9.524,29.342Z" style="fill:#fff24a;stroke:#fff24a;stroke-width:2.3px;"/><path d="M200.695,130.734c-11.068,-0.058 -20.009,-8.253 -19.955,-18.288c0.055,-10.036 9.085,-18.136 20.153,-18.078c11.068,0.058 20.009,8.253 19.955,18.288c-0.055,10.036 -9.085,18.136 -20.153,18.078Z" style="fill:#fff9ae;stroke:#fff9ae;stroke-width:0.24px;"/><path d="M303.657,94.367c-11.068,-0.058 -20.009,-8.253 -19.955,-18.288c0.055,-10.036 9.085,-18.136 20.153,-18.078c11.068,0.058 20.009,8.253 19.955,18.288c-0.055,10.036 -9.085,18.136 -20.153,18.078Z" style="fill:#f5b7b1;stroke:#fff9ae;stroke-width:0.24px;"/><path d="M191.467,78.974l0.09,-16.485c0.025,-4.549 3.738,-8.223 8.287,-8.199l21.666,0.114c4.549,0.024 8.222,3.737 8.198,8.286l-0.09,16.485c-0.025,4.549 -3.738,8.223 -8.287,8.199l-21.666,-0.114c-4.549,-0.024 -8.222,-3.737 -8.198,-8.286Z" style="fill:#e6e6fa;stroke:#e6e6fa;stroke-width:2.95px;"/><path d="M248.154,208.552c10.903,3.545 22.822,-1.548 26.623,-11.376c3.508,-9.072 -1.806,-19.078 -11.87,-22.35c-9.149,-2.975 -19.151,1.299 -22.341,9.546c-2.87,7.422 1.478,15.609 9.712,18.287c7.319,2.38 15.321,-1.039 17.872,-7.637c2.233,-5.773 -1.149,-12.141 -7.554,-14.223c-5.489,-1.785 -11.491,0.78 -13.404,5.728c-1.595,4.123 0.821,8.672 5.395,10.159c3.66,1.19 7.661,-0.52 8.936,-3.818c0.957,-2.474 -0.493,-5.203 -3.237,-6.096c-1.83,-0.595 -3.83,0.26 -4.468,1.909c-0.319,0.825 0.164,1.734 1.079,2.032" style="fill:none;stroke:#d5dbdb;stroke-width:3px;"/><path d="M199.133,187.408c6.465,-3.657 25.095,-18.174 28.114,-24.033c2.231,-4.331 -5.093,-9.278 -10.003,-11.123c-6.777,-2.547 -24.212,-4.595 -30.66,-4.161c-3.665,0.247 -8.195,3.488 -8.031,6.766c0.312,6.204 6.471,25.034 9.901,30.46c1.79,2.832 7.594,3.837 10.679,2.092Z" style="fill:#ffab91;stroke:#ffab91;stroke-width:0.24px;"/><path d="M169.479,241.795c0,0 -7.11,-26.393 -3.151,-33.746c4.914,-9.126 16.228,-12.397 25.25,-7.299c9.022,5.098 12.358,16.646 7.444,25.773c-3.959,7.353 -29.543,15.272 -29.543,15.272Z" style="fill:#d6eaf8;stroke:#d6eaf8;stroke-width:0.24px;"/><path d="M285.284,260.571c-1.352,6.829 -14.724,12.866 -18.346,12.238c-3.623,-0.628 -1.141,-14.151 -3.389,-16.005c-2.249,-1.854 -9.153,8.263 -10.102,4.881c-1.232,-4.389 0.774,-24.974 2.71,-31.218c1.023,-3.299 7.169,-6.95 8.903,-6.248c1.733,0.701 -0.181,9.254 1.497,10.456c1.679,1.202 6.866,-5.605 8.574,-3.243c3.121,4.316 11.519,22.242 10.154,29.138Z" style="fill:#fff24a;stroke:#fff24a;stroke-width:2.3px;"/><path d="M225.079,277.304c-11.067,0.172 -20.183,-7.836 -20.344,-17.87c-0.162,-10.034 8.692,-18.321 19.759,-18.492c11.067,-0.172 20.183,7.836 20.344,17.87c0.162,10.034 -8.692,18.321 -19.759,18.492Z" style="fill:#fff9ae;stroke:#fff9ae;stroke-width:0.24px;"/><path d="M303.935,241.707c-11.067,0.172 -20.183,-7.836 -20.344,-17.87c-0.162,-10.034 8.692,-18.321 19.759,-18.492c11.067,-0.172 20.183,7.836 20.344,17.87c0.162,10.034 -8.692,18.321 -19.759,18.492Z" style="fill:#f5b7b1;stroke:#fff9ae;stroke-width:0.24px;"/><path d="M284.759,174.953l-0.266,-16.483c-0.073,-4.549 3.56,-8.299 8.109,-8.369l21.664,-0.336c4.549,-0.071 8.301,3.565 8.374,8.114l0.266,16.483c0.073,4.549 -3.56,8.299 -8.109,8.369l-21.664,0.336c-4.549,0.071 -8.301,-3.565 -8.374,-8.114Z" style="fill:#e6e6fa;stroke:#e6e6fa;stroke-width:2.95px;"/><path d="M75.061,216.225c-10.883,-3.602 -22.83,1.429 -26.684,11.236c-3.558,9.053 1.702,19.087 11.748,22.412c9.133,3.023 19.158,-1.199 22.392,-9.429c2.911,-7.407 -1.393,-15.617 -9.612,-18.337c-7.306,-2.418 -15.326,0.959 -17.914,7.543c-2.264,5.761 1.083,12.147 7.476,14.262c5.48,1.814 11.495,-0.719 13.435,-5.657c1.617,-4.115 -0.774,-8.676 -5.34,-10.187c-3.653,-1.209 -7.663,0.48 -8.957,3.772c-0.97,2.469 0.464,5.206 3.204,6.112c1.827,0.605 3.832,-0.24 4.478,-1.886c0.323,-0.823 -0.155,-1.735 -1.068,-2.037" style="fill:none;stroke:#d5dbdb;stroke-width:3px;"/><path d="M123.961,237.154c-6.485,3.623 -25.194,18.042 -28.244,23.886c-2.255,4.32 5.042,9.304 9.942,11.176c6.763,2.583 24.187,4.722 30.637,4.322c3.666,-0.228 8.214,-3.445 8.067,-6.724c-0.278,-6.206 -6.335,-25.068 -9.735,-30.511c-1.775,-2.841 -7.573,-3.876 -10.667,-2.148Z" style="fill:#ffab91;stroke:#ffab91;stroke-width:0.24px;"/><path d="M10.772,228.977c0,0 24.37,13.043 27.064,20.89c3.379,9.843 -1.98,20.195 -11.961,23.102c-9.981,2.907 -20.828,-2.725 -24.207,-12.568c-2.694,-7.847 9.104,-31.424 9.104,-31.424Z" style="fill:#d6eaf8;stroke:#d6eaf8;stroke-width:0.24px;"/><path d="M38.215,164.011c1.389,-6.822 14.794,-12.789 18.413,-12.142c3.619,0.647 1.064,14.156 3.302,16.022c2.238,1.866 9.198,-8.214 10.128,-4.828c1.208,4.396 -0.91,24.969 -2.88,31.203c-1.041,3.294 -7.207,6.912 -8.937,6.202c-1.729,-0.71 0.232,-9.253 -1.44,-10.464c-1.672,-1.211 -6.896,5.568 -8.591,3.198c-3.098,-4.332 -11.398,-22.302 -9.995,-29.191Z" style="fill:#fff24a;stroke:#fff24a;stroke-width:2.3px;"/><path d="M122.718,148.142c11.068,-0.114 20.14,7.941 20.247,17.977c0.107,10.035 -8.792,18.275 -19.859,18.388c-11.068,0.114 -20.14,-7.941 -20.247,-17.977c-0.107,-10.035 8.792,-18.275 19.859,-18.388Z" style="fill:#fff9ae;stroke:#fff9ae;stroke-width:0.24px;"/><path d="M20.354,186.101c11.068,-0.114 20.14,7.941 20.247,17.977c0.107,10.035 -8.792,18.275 -19.859,18.388c-11.068,0.114 -20.14,-7.941 -20.247,-17.977c-0.107,-10.035 8.792,-18.275 19.859,-18.388Z" style="fill:#f5b7b1;stroke:#fff9ae;stroke-width:0.24px;"/><path d="M132.778,199.751l0.176,16.484c0.048,4.549 -3.605,8.28 -8.154,8.327l-21.665,0.222c-4.549,0.047 -8.282,-3.609 -8.33,-8.158l-0.176,-16.484c-0.048,-4.549 3.605,-8.28 8.154,-8.327l21.665,-0.222c4.549,-0.047 8.282,3.609 8.33,8.158Z" style="fill:#e6e6fa;stroke:#e6e6fa;stroke-width:2.95px;"/><path d="M247.734,507.703c10.83,3.753 22.848,-1.111 26.844,-10.864c3.688,-9.003 -1.426,-19.109 -11.423,-22.574c-9.088,-3.149 -19.173,0.932 -22.526,9.117c-3.017,7.366 1.167,15.635 9.346,18.469c7.27,2.519 15.339,-0.746 18.021,-7.293c2.347,-5.729 -0.908,-12.16 -7.269,-14.365c-5.453,-1.89 -11.504,0.559 -13.516,5.47c-1.676,4.092 0.648,8.686 5.192,10.261c3.635,1.26 7.669,-0.373 9.01,-3.647c1.006,-2.455 -0.389,-5.212 -3.115,-6.156c-1.818,-0.63 -3.835,0.186 -4.505,1.823c-0.335,0.818 0.13,1.737 1.038,2.052" style="fill:none;stroke:#d5dbdb;stroke-width:3px;"/><path d="M199.142,485.624c6.537,-3.532 25.452,-17.69 28.586,-23.491c2.317,-4.288 -4.907,-9.374 -9.78,-11.313c-6.725,-2.677 -24.116,-5.058 -30.572,-4.747c-3.669,0.177 -8.263,3.331 -8.164,6.611c0.188,6.209 5.972,25.154 9.293,30.643c1.734,2.866 7.516,3.981 10.635,2.296Z" style="fill:#ffab91;stroke:#ffab91;stroke-width:0.24px;"/><path d="M168.413,539.433c0,0 -6.58,-26.532 -2.474,-33.81c5.091,-9.025 16.466,-12.073 25.385,-6.804c8.919,5.27 12.027,16.875 6.936,25.9c-4.106,7.279 -29.847,14.714 -29.847,14.714Z" style="fill:#d6eaf8;stroke:#d6eaf8;stroke-width:0.24px;"/><path d="M283.822,560.424c-1.488,6.802 -14.977,12.582 -18.586,11.885c-3.609,-0.697 -0.859,-14.17 -3.07,-16.066c-2.211,-1.897 -9.315,8.086 -10.197,4.687c-1.145,-4.412 1.271,-24.954 3.33,-31.16c1.088,-3.279 7.306,-6.811 9.025,-6.077c1.719,0.734 -0.365,9.248 1.289,10.483c1.654,1.234 6.976,-5.472 8.637,-3.078c3.035,4.375 11.075,22.459 9.573,29.327Z" style="fill:#fff24a;stroke:#fff24a;stroke-width:2.3px;"/><path d="M223.296,576c-11.068,-0.04 -20.023,-8.221 -19.985,-18.256c0.038,-10.036 9.055,-18.151 20.123,-18.11c11.068,0.04 20.023,8.221 19.985,18.256c-0.038,10.036 -9.055,18.151 -20.123,18.11Z" style="fill:#fff9ae;stroke:#fff9ae;stroke-width:0.24px;"/><path d="M302.844,541.92c-11.068,-0.04 -20.023,-8.221 -19.985,-18.256c0.038,-10.036 9.055,-18.151 20.123,-18.11c11.068,0.04 20.023,8.221 19.985,18.256c-0.038,10.036 -9.055,18.151 -20.123,18.11Z" style="fill:#f5b7b1;stroke:#fff9ae;stroke-width:0.24px;"/><path d="M285,474.812l0.062,-16.485c0.017,-4.549 3.725,-8.229 8.274,-8.213l21.666,0.079c4.549,0.017 8.229,3.723 8.211,8.273l-0.062,16.485c-0.017,4.549 -3.725,8.229 -8.274,8.213l-21.666,-0.079c-4.549,-0.017 -8.229,-3.723 -8.211,-8.273Z" style="fill:#e6e6fa;stroke:#e6e6fa;stroke-width:2.95px;"/><path d="M74.521,512.06c-10.809,-3.81 -22.854,0.991 -26.903,10.723c-3.737,8.983 1.322,19.116 11.3,22.633c9.071,3.197 19.178,-0.832 22.576,-8.998c3.058,-7.35 -1.082,-15.641 -9.246,-18.518c-7.257,-2.558 -15.343,0.665 -18.06,7.199c-2.378,5.717 0.841,12.165 7.191,14.403c5.443,1.918 11.507,-0.499 13.545,-5.399c1.699,-4.083 -0.601,-8.689 -5.136,-10.288c-3.628,-1.279 -7.671,0.333 -9.03,3.599c-1.019,2.45 0.361,5.214 3.082,6.173c1.814,0.639 3.836,-0.166 4.515,-1.8c0.34,-0.817 -0.12,-1.738 -1.027,-2.058" style="fill:none;stroke:#d5dbdb;stroke-width:3px;"/><path d="M122.996,533.921c-6.556,3.498 -25.548,17.556 -28.714,23.34c-2.34,4.276 4.856,9.399 9.718,11.364c6.711,2.712 24.088,5.184 30.545,4.908c3.67,-0.157 8.281,-3.287 8.199,-6.568c-0.154,-6.21 -5.835,-25.185 -9.126,-30.692c-1.718,-2.875 -7.495,-4.021 -10.623,-2.352Z" style="fill:#ffab91;stroke:#ffab91;stroke-width:0.24px;"/><path d="M9.99,523.579c0,0 24.105,13.502 26.642,21.397c3.184,9.91 -2.379,20.16 -12.416,22.875c-10.037,2.715 -20.771,-3.126 -23.955,-13.036c-2.537,-7.895 9.729,-31.237 9.729,-31.237Z" style="fill:#d6eaf8;stroke:#d6eaf8;stroke-width:0.24px;"/><path d="M38.721,459.15c1.525,-6.794 15.045,-12.503 18.651,-11.787c3.606,0.716 0.782,14.174 2.983,16.082c2.201,1.908 9.359,-8.037 10.222,-4.633c1.12,4.418 -1.407,24.947 -3.5,31.142c-1.106,3.273 -7.343,6.773 -9.058,6.029c-1.715,-0.743 0.416,-9.246 -1.232,-10.489c-1.648,-1.243 -7.006,5.435 -8.653,3.033c-3.011,-4.391 -10.952,-22.516 -9.413,-29.377Z" style="fill:#fff24a;stroke:#fff24a;stroke-width:2.3px;"/><path d="M123.522,444.902c11.068,0.098 19.978,8.326 19.885,18.361c-0.093,10.035 -9.153,18.103 -20.221,18.004c-11.068,-0.098 -19.978,-8.326 -19.885,-18.361c0.093,-10.035 9.153,-18.103 20.221,-18.004Z" style="fill:#fff9ae;stroke:#fff9ae;stroke-width:0.24px;"/><path d="M20.424,480.894c11.068,0.098 19.978,8.326 19.885,18.361c-0.093,10.035 -9.153,18.103 -20.221,18.004c-11.068,-0.098 -19.978,-8.326 -19.885,-18.361c0.093,-10.035 9.153,-18.103 20.221,-18.004Z" style="fill:#f5b7b1;stroke:#fff9ae;stroke-width:0.24px;"/><path d="M132.554,496.695l-0.152,16.485c-0.042,4.549 -3.769,8.21 -8.318,8.169l-21.665,-0.192c-4.549,-0.04 -8.208,-3.766 -8.166,-8.316l0.152,-16.485c0.042,-4.549 3.769,-8.21 8.318,-8.169l21.665,0.192c4.549,0.04 8.208,3.766 8.166,8.316Z" style="fill:#e6e6fa;stroke:#e6e6fa;stroke-width:2.95px;"/><path d="M76.357,366.912c-10.889,-3.585 -22.828,1.465 -26.665,11.279c-3.543,9.059 1.734,19.085 11.785,22.394c9.138,3.008 19.156,-1.229 22.377,-9.465c2.898,-7.412 -1.419,-15.615 -9.643,-18.322c-7.31,-2.406 -15.325,0.984 -17.901,7.572c-2.254,5.765 1.103,12.145 7.5,14.25c5.483,1.805 11.494,-0.738 13.426,-5.679c1.61,-4.118 -0.788,-8.675 -5.357,-10.179c-3.655,-1.203 -7.662,0.492 -8.951,3.786c-0.966,2.471 0.473,5.205 3.214,6.107c1.828,0.602 3.831,-0.246 4.475,-1.893c0.322,-0.824 -0.158,-1.735 -1.071,-2.036" style="fill:none;stroke:#d5dbdb;stroke-width:3px;"/><path d="M125.299,388.234c-6.479,3.633 -25.164,18.083 -28.204,23.931c-2.248,4.323 5.058,9.296 9.961,11.16c6.768,2.572 24.194,4.683 30.644,4.273c3.666,-0.233 8.208,-3.459 8.056,-6.737c-0.288,-6.205 -6.376,-25.058 -9.786,-30.496c-1.78,-2.839 -7.58,-3.864 -10.671,-2.131Z" style="fill:#ffab91;stroke:#ffab91;stroke-width:0.24px;"/><path d="M155.158,333.955c0,0 7.009,26.42 3.023,33.759c-4.948,9.107 -16.274,12.336 -25.277,7.205c-9.003,-5.131 -12.295,-16.69 -7.348,-25.798c3.987,-7.339 29.602,-15.167 29.602,-15.167Z" style="fill:#d6eaf8;stroke:#d6eaf8;stroke-width:0.24px;"/><path d="M39.425,314.757c1.378,-6.824 14.772,-12.812 18.393,-12.171c3.62,0.641 1.087,14.155 3.329,16.017c2.241,1.862 9.184,-8.229 10.12,-4.844c1.215,4.394 -0.869,24.971 -2.828,31.208c-1.035,3.296 -7.196,6.923 -8.926,6.216c-1.731,-0.708 0.216,-9.253 -1.458,-10.461c-1.674,-1.208 -6.887,5.58 -8.586,3.212c-3.105,-4.327 -11.435,-22.284 -10.044,-29.175Z" style="fill:#fff24a;stroke:#fff24a;stroke-width:2.3px;"/><path d="M99.692,298.244c11.067,-0.131 20.153,7.909 20.277,17.944c0.124,10.035 -8.761,18.289 -19.828,18.42c-11.067,0.131 -20.153,-7.909 -20.277,-17.944c-0.124,-10.035 8.761,-18.289 19.828,-18.42Z" style="fill:#fff9ae;stroke:#fff9ae;stroke-width:0.24px;"/><path d="M20.703,333.554c11.067,-0.131 20.153,7.909 20.277,17.944c0.124,10.035 -8.761,18.289 -19.828,18.42c-11.067,0.131 -20.153,-7.909 -20.277,-17.944c-0.124,-10.035 8.761,-18.289 19.828,-18.42Z" style="fill:#f5b7b1;stroke:#fff9ae;stroke-width:0.24px;"/><path d="M39.626,400.377l0.203,16.484c0.056,4.549 -3.592,8.286 -8.14,8.34l-21.665,0.257c-4.549,0.054 -8.288,-3.595 -8.344,-8.144l-0.203,-16.484c-0.056,-4.549 3.592,-8.286 8.14,-8.34l21.665,-0.257c4.549,-0.054 8.288,3.595 8.344,8.144Z" style="fill:#e6e6fa;stroke:#e6e6fa;stroke-width:2.95px;"/><path d="M249.479,359.869c10.869,3.642 22.835,-1.345 26.726,-11.139c3.592,-9.04 -1.63,-19.094 -11.663,-22.455c-9.121,-3.056 -19.162,1.129 -22.428,9.347c-2.939,7.396 1.334,15.622 9.543,18.372c7.297,2.445 15.33,-0.903 17.942,-7.478c2.286,-5.753 -1.037,-12.15 -7.422,-14.29c-5.473,-1.834 -11.497,0.677 -13.457,5.608c-1.633,4.109 0.741,8.679 5.301,10.207c3.648,1.222 7.665,-0.452 8.971,-3.739c0.98,-2.465 -0.445,-5.207 -3.181,-6.124c-1.824,-0.611 -3.832,0.226 -4.486,1.869c-0.327,0.822 0.148,1.736 1.06,2.041" style="fill:none;stroke:#d5dbdb;stroke-width:3px;"/><path d="M200.658,338.762c6.499,-3.599 25.262,-17.95 28.334,-23.783c2.271,-4.311 -5.007,-9.323 -9.9,-11.212c-6.753,-2.608 -24.168,-4.81 -30.621,-4.433c-3.667,0.214 -8.227,3.415 -8.093,6.695c0.254,6.207 6.24,25.091 9.62,30.546c1.764,2.848 7.558,3.904 10.659,2.187Z" style="fill:#ffab91;stroke:#ffab91;stroke-width:0.24px;"/><path d="M313.816,347.35c0,0 -24.321,-13.131 -26.985,-20.987c-3.342,-9.856 2.056,-20.189 12.048,-23.059c9.992,-2.871 20.817,2.801 24.16,12.657c2.664,7.856 -9.223,31.389 -9.223,31.389Z" style="fill:#d6eaf8;stroke:#d6eaf8;stroke-width:0.24px;"/><path d="M286.127,412.217c-1.415,6.817 -14.842,12.735 -18.459,12.075c-3.617,-0.66 -1.01,-14.16 -3.241,-16.034c-2.231,-1.874 -9.229,8.181 -10.146,4.791c-1.191,-4.4 1.005,-24.966 2.997,-31.193c1.053,-3.29 7.233,-6.886 8.96,-6.169c1.727,0.717 -0.267,9.252 1.401,10.469c1.667,1.217 6.917,-5.543 8.603,-3.166c3.081,4.343 11.314,22.344 9.885,29.227Z" style="fill:#fff24a;stroke:#fff24a;stroke-width:2.3px;"/><path d="M201.565,427.778c-11.068,0.073 -20.11,-8.015 -20.179,-18.05c-0.069,-10.035 8.861,-18.243 19.928,-18.316c11.068,-0.073 20.11,8.015 20.179,18.05c0.069,10.035 -8.861,18.243 -19.928,18.316Z" style="fill:#fff9ae;stroke:#fff9ae;stroke-width:0.24px;"/><path d="M304.071,390.192c-11.068,0.073 -20.11,-8.015 -20.179,-18.05c-0.069,-10.035 8.861,-18.243 19.928,-18.316c11.068,-0.073 20.11,8.015 20.179,18.05c0.069,10.035 -8.861,18.243 -19.928,18.316Z" style="fill:#f5b7b1;stroke:#fff9ae;stroke-width:0.24px;"/><path d="M191.7,376.132l-0.113,-16.485c-0.031,-4.549 3.637,-8.267 8.186,-8.297l21.666,-0.144c4.549,-0.03 8.268,3.639 8.299,8.188l0.113,16.485c0.031,4.549 -3.637,8.267 -8.186,8.297l-21.666,0.144c-4.549,0.03 -8.268,-3.639 -8.299,-8.188Z" style="fill:#e6e6fa;stroke:#e6e6fa;stroke-width:2.95px;"/></svg>