<?xml version="1.0" encoding="UTF-8" standalone="no"?>
<!DOCTYPE svg PUBLIC "-//W3C//DTD SVG 1.1//EN" "http://www.w3.org/Graphics/SVG/1.1/DTD/svg11.dtd">
<svg width="100%" height="100%" viewBox="0 0 2400 1800" version="1.1" xmlns="http://www.w3.org/2000/svg" xmlns:xlink="http://www.w3.org/1999/xlink" xml:space="preserve" xmlns:serif="http://www.serif.com/" style="fill-rule:evenodd;clip-rule:evenodd;stroke-linecap:round;stroke-linejoin:round;stroke-miterlimit:1.5;">
    <g transform="matrix(-1.869975,0.004316,-0.004676,-1.725885,4819.785459,1982.300169)">
        <path d="M1809.817,935.976L1352.175,935.976C1328.985,901.369 1316.776,862.111 1316.776,822.149C1316.776,696.504 1435.169,594.495 1580.996,594.495C1726.823,594.495 1845.216,696.504 1845.216,822.149C1845.216,862.111 1833.008,901.369 1809.817,935.976Z" style="fill:white;"/>
        <clipPath id="_clip1">
            <path d="M1809.817,935.976L1352.175,935.976C1328.985,901.369 1316.776,862.111 1316.776,822.149C1316.776,696.504 1435.169,594.495 1580.996,594.495C1726.823,594.495 1845.216,696.504 1845.216,822.149C1845.216,862.111 1833.008,901.369 1809.817,935.976Z"/>
        </clipPath>
        <g clip-path="url(#_clip1)">
            <g transform="matrix(-0.999997,-0.0025,0.0025,-0.999997,2427.138472,1763.184283)">
                <ellipse cx="848.493" cy="849.288" rx="163.958" ry="146.256" style="stroke:black;stroke-width:2.32px;"/>
            </g>
        </g>
        <path d="M1809.817,935.976L1352.175,935.976C1328.985,901.369 1316.776,862.111 1316.776,822.149C1316.776,696.504 1435.169,594.495 1580.996,594.495C1726.823,594.495 1845.216,696.504 1845.216,822.149C1845.216,862.111 1833.008,901.369 1809.817,935.976Z" style="fill:none;stroke:white;stroke-width:2.32px;"/>
    </g>
    <g transform="matrix(-1.869975,0.004316,-0.004676,-1.725885,3500.750248,1982.300169)">
        <path d="M1809.817,935.976L1352.175,935.976C1328.985,901.369 1316.776,862.111 1316.776,822.149C1316.776,696.504 1435.169,594.495 1580.996,594.495C1726.823,594.495 1845.216,696.504 1845.216,822.149C1845.216,862.111 1833.008,901.369 1809.817,935.976Z" style="fill:white;"/>
        <clipPath id="_clip2">
            <path d="M1809.817,935.976L1352.175,935.976C1328.985,901.369 1316.776,862.111 1316.776,822.149C1316.776,696.504 1435.169,594.495 1580.996,594.495C1726.823,594.495 1845.216,696.504 1845.216,822.149C1845.216,862.111 1833.008,901.369 1809.817,935.976Z"/>
        </clipPath>
        <g clip-path="url(#_clip2)">
            <g transform="matrix(-0.999997,-0.0025,0.0025,-0.999997,2427.138472,1763.184283)">
                <ellipse cx="848.493" cy="849.288" rx="163.958" ry="146.256" style="stroke:black;stroke-width:2.32px;"/>
            </g>
        </g>
        <path d="M1809.817,935.976L1352.175,935.976C1328.985,901.369 1316.776,862.111 1316.776,822.149C1316.776,696.504 1435.169,594.495 1580.996,594.495C1726.823,594.495 1845.216,696.504 1845.216,822.149C1845.216,862.111 1833.008,901.369 1809.817,935.976Z" style="fill:none;stroke:white;stroke-width:2.32px;"/>
    </g>
    <g transform="matrix(1,0,0,0.655305,279.212657,396.555066)">
        <path d="M642.071,1309.305C642.071,1248.878 643.623,1204.759 670.38,1151.245C689.54,1112.926 684.3,1097.646 800.179,1068.676C807.404,1066.87 875.623,1071.035 892.136,1104.063C892.383,1104.556 916.829,1136.935 920.446,1144.168C959.653,1222.583 972.78,1288.507 1017.169,1332.896C1026.352,1342.08 1132.312,1375.814 1203.539,1304.587C1267.46,1240.666 1238.914,1146.46 1229.489,1089.908" style="fill:none;stroke:black;stroke-width:56.68px;"/>
    </g>
</svg>
