<?xml version="1.0" encoding="UTF-8" standalone="no"?><!DOCTYPE svg PUBLIC "-//W3C//DTD SVG 1.1//EN" "http://www.w3.org/Graphics/SVG/1.1/DTD/svg11.dtd"><svg width="100%" height="100%" viewBox="0 0 432 288" version="1.1" xmlns="http://www.w3.org/2000/svg" xmlns:xlink="http://www.w3.org/1999/xlink" xml:space="preserve" xmlns:serif="http://www.serif.com/" style="fill-rule:evenodd;clip-rule:evenodd;stroke-linecap:round;stroke-linejoin:round;stroke-miterlimit:1.5;"><path d="M118.05,57.385c32.461,-0.881 148.215,-0.881 180.047,0c4.05,0.112 8.258,2.253 10.946,5.284c2.957,3.334 6.571,9.321 6.794,14.721c1.132,27.366 2.768,121.667 0,149.473c-0.793,7.97 -8.628,16.686 -16.608,17.363c-34.097,2.894 -154.003,2.831 -187.974,0c-7.718,-0.643 -15.124,-9.275 -15.853,-16.986c-2.642,-27.932 -1.321,-123.177 0,-150.606c0.258,-5.347 4.152,-10.758 7.927,-13.966c3.775,-3.208 9.509,-5.143 14.721,-5.284Zm4.881,7.309c-4.921,0.13 -10.336,1.915 -13.9,4.874c-3.564,2.959 -7.242,7.95 -7.485,12.882c-1.247,25.3 -2.495,113.152 0,138.915c0.689,7.112 7.682,15.074 14.97,15.667c32.078,2.611 145.3,2.669 177.497,0c7.536,-0.625 14.933,-8.664 15.682,-16.015c2.614,-25.648 1.069,-112.629 0,-137.871c-0.211,-4.981 -3.624,-10.503 -6.416,-13.578c-2.538,-2.796 -6.512,-4.771 -10.336,-4.874c-30.058,-0.812 -139.36,-0.812 -170.012,0Z" style="fill:#383838;"/><g><path d="M118.05,57.385c32.461,-0.881 148.215,-0.881 180.047,0c4.05,0.112 8.258,2.253 10.946,5.284c2.957,3.334 6.571,9.321 6.794,14.721c1.132,27.366 2.768,121.667 0,149.473c-0.793,7.97 -8.628,16.686 -16.608,17.363c-34.097,2.894 -154.003,2.831 -187.974,0c-7.718,-0.643 -15.124,-9.275 -15.853,-16.986c-2.642,-27.932 -1.321,-123.177 0,-150.606c0.258,-5.347 4.152,-10.758 7.927,-13.966c3.775,-3.208 9.509,-5.143 14.721,-5.284Z" style="fill:url(#_Linear1);stroke:#383838;stroke-width:0.24px;"/><path d="M122.931,64.694c30.652,-0.812 139.954,-0.812 170.012,0c3.824,0.103 7.798,2.078 10.336,4.874c2.792,3.075 6.205,8.598 6.416,13.578c1.069,25.241 2.614,112.223 0,137.871c-0.749,7.351 -8.147,15.391 -15.682,16.015c-32.197,2.669 -145.419,2.611 -177.497,0c-7.288,-0.593 -14.281,-8.555 -14.97,-15.667c-2.495,-25.764 -1.247,-113.616 0,-138.915c0.243,-4.932 3.921,-9.923 7.485,-12.882c3.564,-2.959 8.979,-4.744 13.9,-4.874Z" style="fill:url(#_Linear2);stroke:#383838;stroke-width:0.24px;"/></g><path d="M140.32,148.058l0,8.493c0,2.239 -1.818,4.058 -4.058,4.058l-8.115,0c-2.239,0 -4.058,-1.818 -4.058,-4.058l0,-8.493c0,-2.239 1.818,-4.058 4.058,-4.058l8.115,0c2.239,0 4.058,1.818 4.058,4.058Z" style="fill:#383838;stroke:#383838;stroke-width:0.24px;"/><path d="M213.734,148.058l0,8.493c0,2.239 -1.818,4.058 -4.058,4.058l-8.115,0c-2.239,0 -4.058,-1.818 -4.058,-4.058l0,-8.493c0,-2.239 1.818,-4.058 4.058,-4.058l8.115,0c2.239,0 4.058,1.818 4.058,4.058Z" style="fill:#383838;stroke:#383838;stroke-width:0.24px;"/><path d="M140.32,195.24l0,8.493c0,2.239 -1.818,4.058 -4.058,4.058l-8.115,0c-2.239,0 -4.058,-1.818 -4.058,-4.058l0,-8.493c0,-2.239 1.818,-4.058 4.058,-4.058l8.115,0c2.239,0 4.058,1.818 4.058,4.058Z" style="fill:#383838;stroke:#383838;stroke-width:0.24px;"/><path d="M216,195.24l0,8.493c0,2.239 -1.818,4.058 -4.058,4.058l-8.115,0c-2.239,0 -4.058,-1.818 -4.058,-4.058l0,-8.493c0,-2.239 1.818,-4.058 4.058,-4.058l8.115,0c2.239,0 4.058,1.818 4.058,4.058Z" style="fill:#383838;stroke:#383838;stroke-width:0.24px;"/><path d="M281.678,148.058l0,8.493c0,2.239 -1.818,4.058 -4.058,4.058l-8.115,0c-2.239,0 -4.058,-1.818 -4.058,-4.058l0,-8.493c0,-2.239 1.818,-4.058 4.058,-4.058l8.115,0c2.239,0 4.058,1.818 4.058,4.058Z" style="fill:#383838;stroke:#383838;stroke-width:0.24px;"/><rect x="100.105" y="99.271" width="211.027" height="10.569" style="fill:#383838;"/><path d="M137.588,43.913l8.962,-0.097l0.374,34.375l-8.962,0.097l-0.374,-34.375Z" style="fill:#383838;"/><path d="M260.779,43.913l8.962,-0.097l0.374,34.375l-8.962,0.097l-0.374,-34.375Z" style="fill:#383838;"/><defs><linearGradient id="_Linear1" x1="0" y1="0" x2="1" y2="0" gradientUnits="userSpaceOnUse" gradientTransform="matrix(200.052425,-174.927981,174.927981,200.052425,106.726081,239.013139)"><stop offset="0" style="stop-color:#800000;stop-opacity:0"/><stop offset="1" style="stop-color:#111;stop-opacity:0"/></linearGradient><linearGradient id="_Linear2" x1="0" y1="0" x2="1" y2="0" gradientUnits="userSpaceOnUse" gradientTransform="matrix(200.052425,-174.927981,174.927981,200.052425,106.726081,239.013139)"><stop offset="0" style="stop-color:#800000;stop-opacity:0"/><stop offset="1" style="stop-color:#111;stop-opacity:0"/></linearGradient></defs></svg>