<?xml version="1.0" encoding="UTF-8" standalone="no"?>
<!DOCTYPE svg PUBLIC "-//W3C//DTD SVG 1.1//EN" "http://www.w3.org/Graphics/SVG/1.1/DTD/svg11.dtd">
<svg width="100%" height="100%" viewBox="0 0 2400 1800" version="1.1" xmlns="http://www.w3.org/2000/svg" xmlns:xlink="http://www.w3.org/1999/xlink" xml:space="preserve" xmlns:serif="http://www.serif.com/" style="fill-rule:evenodd;clip-rule:evenodd;stroke-linecap:round;stroke-linejoin:round;stroke-miterlimit:1.5;">
    <g transform="matrix(1.463252,0,0,1.330224,-330.238348,-234.891156)">
        <ellipse cx="628.328" cy="756.441" rx="293.414" ry="274.246" style="stroke:black;stroke-width:2.98px;"/>
    </g>
    <g transform="matrix(1.742931,0,0,2.244753,-511.281971,-660.398622)">
        <path d="M678.291,513.589L678.291,610.218C678.291,636.884 650.409,658.533 616.066,658.533L447.27,658.533C412.927,658.533 385.045,636.884 385.045,610.218L385.045,513.589C385.045,486.924 412.927,465.275 447.27,465.275L616.066,465.275C650.409,465.275 678.291,486.924 678.291,513.589Z" style="stroke:black;stroke-width:2.07px;"/>
    </g>
    <g transform="matrix(1.742931,0,0,1.005917,-624.072382,-5.062371)">
        <path d="M678.291,513.589L678.291,610.218C678.291,636.884 665.797,658.533 650.407,658.533L412.929,658.533C397.539,658.533 385.045,636.884 385.045,610.218L385.045,513.589C385.045,486.924 397.539,465.275 412.929,465.275L650.407,465.275C665.797,465.275 678.291,486.924 678.291,513.589Z" style="stroke:black;stroke-width:2.93px;"/>
    </g>
    <g transform="matrix(1.742931,0,0,1.005917,1170.750039,-10.792616)">
        <path d="M678.291,513.589L678.291,610.218C678.291,636.884 665.797,658.533 650.407,658.533L412.929,658.533C397.539,658.533 385.045,636.884 385.045,610.218L385.045,513.589C385.045,486.924 397.539,465.275 412.929,465.275L650.407,465.275C665.797,465.275 678.291,486.924 678.291,513.589Z" style="stroke:black;stroke-width:2.93px;"/>
    </g>
    <g transform="matrix(1.463252,0,0,1.330224,898.457192,-262.506807)">
        <ellipse cx="628.328" cy="756.441" rx="293.414" ry="274.246" style="stroke:black;stroke-width:2.98px;"/>
    </g>
    <g transform="matrix(1.742931,0,0,2.244753,1064.982029,-706.899614)">
        <path d="M678.291,513.589L678.291,610.218C678.291,636.884 650.409,658.533 616.066,658.533L447.27,658.533C412.927,658.533 385.045,636.884 385.045,610.218L385.045,513.589C385.045,486.924 412.927,465.275 447.27,465.275L616.066,465.275C650.409,465.275 678.291,486.924 678.291,513.589Z" style="stroke:black;stroke-width:2.07px;"/>
    </g>
    <g transform="matrix(1.645034,0,0,1.330224,-827.119544,-857.50483)">
        <clipPath id="_clip1">
            <rect x="971.637" y="1061.431" width="506.637" height="154.757"/>
        </clipPath>
        <g clip-path="url(#_clip1)">
            <ellipse cx="1230.618" cy="1268.089" rx="170.278" ry="157.588" style="fill-opacity:0;stroke:black;stroke-width:44.57px;"/>
        </g>
    </g>
    <g transform="matrix(2.002179,0,0,1.930971,-1225.160498,-1153.314557)">
        <clipPath id="_clip2">
            <rect x="1019.664" y="1223.737" width="424.639" height="147.208"/>
        </clipPath>
        <g clip-path="url(#_clip2)">
            <ellipse cx="1220.66" cy="1210.526" rx="170.799" ry="130.223" style="fill-opacity:0;stroke:black;stroke-width:10.38px;"/>
        </g>
    </g>
    <g transform="matrix(1.770471,0,0,1.585611,-698.949214,-150.032322)">
        <path d="M549.947,287.644L586.022,365.966L549.947,444.288L513.871,365.966L549.947,287.644Z" style="fill:white;stroke:white;stroke-width:12.15px;"/>
    </g>
</svg>
