<?xml version="1.0" encoding="UTF-8" standalone="no"?><!DOCTYPE svg PUBLIC "-//W3C//DTD SVG 1.1//EN" "http://www.w3.org/Graphics/SVG/1.1/DTD/svg11.dtd"><svg width="100%" height="100%" viewBox="0 0 864 720" version="1.1" xmlns="http://www.w3.org/2000/svg" xmlns:xlink="http://www.w3.org/1999/xlink" xml:space="preserve" xmlns:serif="http://www.serif.com/" style="fill-rule:evenodd;clip-rule:evenodd;stroke-linecap:round;stroke-linejoin:round;stroke-miterlimit:1.5;"><path d="M267.57,385.401l171.229,-335.388l157.631,335.388l-157.631,284.585l-171.229,-284.585Z" style="fill:#ddb0f7;stroke:#c7a5da;stroke-width:0.24px;"/><path d="M432.014,362.774l164.415,22.627l-164.415,23.489l0,-46.117Z" style="fill:#7a6983;fill-opacity:0.81;stroke:#c7a5da;stroke-width:0.24px;"/><path d="M435.385,362.774l-167.815,23.058l164.444,23.058l3.371,-46.117Z" style="fill:#7a6983;stroke:#c7a5da;stroke-width:0.24px;"/><path d="M438.799,50.013l-6.828,358.877l164.459,-23.489l-157.631,-335.388" style="fill:#b689cf;fill-opacity:0.81;stroke:#c7a5da;stroke-width:0.24px;"/><path d="M438.799,50.013l-171.229,335.819l164.444,23.058l6.785,-358.877Z" style="fill:#cf99ec;fill-opacity:0.81;stroke:#c7a5da;stroke-width:0.24px;"/><path d="M267.57,385.832l164.401,23.058l6.828,261.096l-171.229,-284.155Z" style="fill:#945db1;fill-opacity:0.81;stroke:#c7a5da;stroke-width:0.24px;"/><path d="M435.385,408.891l161.045,-23.058l-157.631,284.155l-3.414,-261.096Z" style="fill:#dcaaf7;fill-opacity:0.81;stroke:#c7a5da;stroke-width:0.24px;"/></svg>