<?xml version="1.0" encoding="UTF-8" standalone="no"?>
<!DOCTYPE svg PUBLIC "-//W3C//DTD SVG 1.1//EN" "http://www.w3.org/Graphics/SVG/1.1/DTD/svg11.dtd">
<svg width="100%" height="100%" viewBox="0 0 1800 1200" version="1.1" xmlns="http://www.w3.org/2000/svg" xmlns:xlink="http://www.w3.org/1999/xlink" xml:space="preserve" xmlns:serif="http://www.serif.com/" style="fill-rule:evenodd;clip-rule:evenodd;stroke-linejoin:round;stroke-miterlimit:2;">
    <g transform="matrix(0.864749,0,0,0.804215,393.949999,591.509458)">
        <path d="M296.855,198.952L296.855,231.979C296.855,241.093 289.973,248.493 281.497,248.493L170.666,248.493C162.19,248.493 155.308,241.093 155.308,231.979L155.308,198.952C155.308,189.837 162.19,182.438 170.666,182.438L281.497,182.438C289.973,182.438 296.855,189.837 296.855,198.952Z" style="fill:rgb(213,138,65);"/>
    </g>
    <g transform="matrix(0.746829,0,0,0.835146,-69.926727,610.942153)">
        <path d="M296.855,198.952L296.855,231.979C296.855,241.093 288.58,248.493 278.388,248.493L173.775,248.493C163.583,248.493 155.308,241.093 155.308,231.979L155.308,198.952C155.308,189.837 163.583,182.438 173.775,182.438L278.388,182.438C288.58,182.438 296.855,189.837 296.855,198.952Z" style="fill:rgb(213,138,65);"/>
    </g>
    <g transform="matrix(0.746829,0,0,0.835146,-69.926727,62.536892)">
        <path d="M296.855,198.952L296.855,231.979C296.855,241.093 288.58,248.493 278.388,248.493L173.775,248.493C163.583,248.493 155.308,241.093 155.308,231.979L155.308,198.952C155.308,189.837 163.583,182.438 173.775,182.438L278.388,182.438C288.58,182.438 296.855,189.837 296.855,198.952Z" style="fill:rgb(213,138,65);"/>
    </g>
    <g transform="matrix(0.864749,0,0,0.154657,154.709229,641.807944)">
        <path d="M296.855,198.952L296.855,231.979C296.855,241.093 295.531,248.493 293.901,248.493L158.261,248.493C156.631,248.493 155.308,241.093 155.308,231.979L155.308,198.952C155.308,189.837 156.631,182.438 158.261,182.438L293.901,182.438C295.531,182.438 296.855,189.837 296.855,198.952Z" style="fill:rgb(213,138,65);"/>
    </g>
    <g transform="matrix(0.864749,0,0,0.154657,154.709229,658.696462)">
        <path d="M296.855,198.952L296.855,231.979C296.855,241.093 295.531,248.493 293.901,248.493L158.261,248.493C156.631,248.493 155.308,241.093 155.308,231.979L155.308,198.952C155.308,189.837 156.631,182.438 158.261,182.438L293.901,182.438C295.531,182.438 296.855,189.837 296.855,198.952Z" style="fill:rgb(213,138,65);"/>
    </g>
    <g transform="matrix(0.864749,0,0,0.154657,154.709229,675.58498)">
        <path d="M296.855,198.952L296.855,231.979C296.855,241.093 295.531,248.493 293.901,248.493L158.261,248.493C156.631,248.493 155.308,241.093 155.308,231.979L155.308,198.952C155.308,189.837 156.631,182.438 158.261,182.438L293.901,182.438C295.531,182.438 296.855,189.837 296.855,198.952Z" style="fill:rgb(213,138,65);"/>
    </g>
    <g transform="matrix(0.864749,0,0,0.46397,1236.893068,562.948263)">
        <path d="M296.855,198.952L296.855,231.979C296.855,241.093 292.884,248.493 287.994,248.493L164.168,248.493C159.278,248.493 155.308,241.093 155.308,231.979L155.308,198.952C155.308,189.837 159.278,182.438 164.168,182.438L287.994,182.438C292.884,182.438 296.855,189.837 296.855,198.952Z" style="fill:rgb(213,138,65);"/>
    </g>
    <g transform="matrix(0.864749,0,0,0.858231,1460.333279,54.486089)">
        <path d="M296.855,198.952L296.855,231.979C296.855,241.093 289.511,248.493 280.465,248.493L171.697,248.493C162.652,248.493 155.308,241.093 155.308,231.979L155.308,198.952C155.308,189.837 162.652,182.438 171.697,182.438L280.465,182.438C289.511,182.438 296.855,189.837 296.855,198.952Z" style="fill:rgb(213,138,65);"/>
    </g>
    <g transform="matrix(0.864749,0,0,0.927941,1236.893068,11.120906)">
        <path d="M296.855,198.952L296.855,231.979C296.855,241.093 288.914,248.493 279.134,248.493L173.028,248.493C163.248,248.493 155.308,241.093 155.308,231.979L155.308,198.952C155.308,189.837 163.248,182.438 173.028,182.438L279.134,182.438C288.914,182.438 296.855,189.837 296.855,198.952Z" style="fill:rgb(213,138,65);"/>
    </g>
    <g transform="matrix(0.864749,0,0,0.154657,1236.893068,673.587478)">
        <path d="M296.855,198.952L296.855,231.979C296.855,241.093 295.531,248.493 293.901,248.493L158.261,248.493C156.631,248.493 155.308,241.093 155.308,231.979L155.308,198.952C155.308,189.837 156.631,182.438 158.261,182.438L293.901,182.438C295.531,182.438 296.855,189.837 296.855,198.952Z" style="fill:rgb(213,138,65);"/>
    </g>
    <g transform="matrix(0.864749,0,0,0.154657,1460.333279,318.075579)">
        <path d="M296.855,198.952L296.855,231.979C296.855,241.093 295.531,248.493 293.901,248.493L158.261,248.493C156.631,248.493 155.308,241.093 155.308,231.979L155.308,198.952C155.308,189.837 156.631,182.438 158.261,182.438L293.901,182.438C295.531,182.438 296.855,189.837 296.855,198.952Z" style="fill:rgb(213,138,65);"/>
    </g>
    <g transform="matrix(0.864749,0,0,0.154657,1460.333279,273.125798)">
        <path d="M296.855,198.952L296.855,231.979C296.855,241.093 295.531,248.493 293.901,248.493L158.261,248.493C156.631,248.493 155.308,241.093 155.308,231.979L155.308,198.952C155.308,189.837 156.631,182.438 158.261,182.438L293.901,182.438C295.531,182.438 296.855,189.837 296.855,198.952Z" style="fill:rgb(213,138,65);"/>
    </g>
    <g transform="matrix(-0,3.110663,-1.853034,-0,500.963659,-187.692772)">
        <path d="M296.855,198.952L296.855,231.979C296.855,241.093 292.447,248.493 287.017,248.493L165.145,248.493C159.716,248.493 155.308,241.093 155.308,231.979L155.308,198.952C155.308,189.837 159.716,182.438 165.145,182.438L287.017,182.438C292.447,182.438 296.855,189.837 296.855,198.952Z" style="fill:rgb(213,138,65);"/>
    </g>
    <g transform="matrix(-0,3.110663,-1.853034,-0,2055.101378,-87.256467)">
        <path d="M296.855,198.952L296.855,231.979C296.855,241.093 292.447,248.493 287.017,248.493L165.145,248.493C159.716,248.493 155.308,241.093 155.308,231.979L155.308,198.952C155.308,189.837 159.716,182.438 165.145,182.438L287.017,182.438C292.447,182.438 296.855,189.837 296.855,198.952Z" style="fill:rgb(213,138,65);"/>
    </g>
    <g transform="matrix(-0,3.110663,-1.853034,-0,749.477328,-269.736549)">
        <path d="M296.855,198.952L296.855,231.979C296.855,241.093 292.447,248.493 287.017,248.493L165.145,248.493C159.716,248.493 155.308,241.093 155.308,231.979L155.308,198.952C155.308,189.837 159.716,182.438 165.145,182.438L287.017,182.438C292.447,182.438 296.855,189.837 296.855,198.952Z" style="fill:rgb(213,138,65);"/>
    </g>
    <g transform="matrix(0.864749,0,0,0.154657,393.949999,797.726791)">
        <path d="M296.855,198.952L296.855,231.979C296.855,241.093 295.531,248.493 293.901,248.493L158.261,248.493C156.631,248.493 155.308,241.093 155.308,231.979L155.308,198.952C155.308,189.837 156.631,182.438 158.261,182.438L293.901,182.438C295.531,182.438 296.855,189.837 296.855,198.952Z" style="fill:rgb(213,138,65);"/>
    </g>
    <g transform="matrix(-0,3.110663,-1.853034,-0,988.718098,-213.046044)">
        <path d="M296.855,198.952L296.855,231.979C296.855,241.093 292.447,248.493 287.017,248.493L165.145,248.493C159.716,248.493 155.308,241.093 155.308,231.979L155.308,198.952C155.308,189.837 159.716,182.438 165.145,182.438L287.017,182.438C292.447,182.438 296.855,189.837 296.855,198.952Z" style="fill:rgb(213,138,65);"/>
    </g>
    <g transform="matrix(0.864749,0,0,0.154657,617.426843,634.273045)">
        <path d="M296.855,198.952L296.855,231.979C296.855,241.093 295.531,248.493 293.901,248.493L158.261,248.493C156.631,248.493 155.308,241.093 155.308,231.979L155.308,198.952C155.308,189.837 156.631,182.438 158.261,182.438L293.901,182.438C295.531,182.438 296.855,189.837 296.855,198.952Z" style="fill:rgb(213,138,65);"/>
    </g>
    <g transform="matrix(-0,1.07538,-1.853034,-0,1212.194942,323.20143)">
        <path d="M296.855,198.952L296.855,231.979C296.855,241.093 284.104,248.493 268.399,248.493L183.764,248.493C168.059,248.493 155.308,241.093 155.308,231.979L155.308,198.952C155.308,189.837 168.059,182.438 183.764,182.438L268.399,182.438C284.104,182.438 296.855,189.837 296.855,198.952Z" style="fill:rgb(213,138,65);"/>
    </g>
    <g transform="matrix(0.864749,0,0,0.315579,808.448544,554.152399)">
        <path d="M296.855,198.952L296.855,231.979C296.855,241.093 294.154,248.493 290.828,248.493L161.334,248.493C158.008,248.493 155.308,241.093 155.308,231.979L155.308,198.952C155.308,189.837 158.008,182.438 161.334,182.438L290.828,182.438C294.154,182.438 296.855,189.837 296.855,198.952Z" style="fill:rgb(213,138,65);"/>
    </g>
    <g transform="matrix(-0,2.627364,-1.853034,-0,1403.216643,-209.142421)">
        <path d="M296.855,198.952L296.855,231.979C296.855,241.093 291.636,248.493 285.208,248.493L166.955,248.493C160.527,248.493 155.308,241.093 155.308,231.979L155.308,198.952C155.308,189.837 160.527,182.438 166.955,182.438L285.208,182.438C291.636,182.438 296.855,189.837 296.855,198.952Z" style="fill:rgb(213,138,65);"/>
    </g>
    <g transform="matrix(-0.864749,0.000441,-0.000133,-0.315579,1410.819628,341.849541)">
        <path d="M296.855,198.952L296.855,231.979C296.855,241.093 294.154,248.493 290.828,248.493L161.334,248.493C158.008,248.493 155.308,241.093 155.308,231.979L155.308,198.952C155.308,189.837 158.008,182.438 161.334,182.438L290.828,182.438C294.154,182.438 296.855,189.837 296.855,198.952Z" style="fill:rgb(213,138,65);"/>
    </g>
    <g transform="matrix(-0.001517,-3.609012,1.853034,-0.000945,816.494873,1396.854399)">
        <path d="M296.855,198.952L296.855,231.979C296.855,241.093 293.055,248.493 288.376,248.493L163.787,248.493C159.107,248.493 155.308,241.093 155.308,231.979L155.308,198.952C155.308,189.837 159.107,182.438 163.787,182.438L288.376,182.438C293.055,182.438 296.855,189.837 296.855,198.952Z" style="fill:rgb(213,138,65);"/>
    </g>
    <g transform="matrix(-0.001034,-2.460142,1.853034,-0.000945,1033.306971,998.273854)">
        <path d="M296.855,198.952L296.855,231.979C296.855,241.093 291.281,248.493 284.416,248.493L167.747,248.493C160.882,248.493 155.308,241.093 155.308,231.979L155.308,198.952C155.308,189.837 160.882,182.438 167.747,182.438L284.416,182.438C291.281,182.438 296.855,189.837 296.855,198.952Z" style="fill:rgb(213,138,65);"/>
    </g>
</svg>
