<?xml version="1.0" encoding="UTF-8" standalone="no"?>
<!DOCTYPE svg PUBLIC "-//W3C//DTD SVG 1.1//EN" "http://www.w3.org/Graphics/SVG/1.1/DTD/svg11.dtd">
<svg width="100%" height="100%" viewBox="0 0 1800 1200" version="1.1" xmlns="http://www.w3.org/2000/svg" xmlns:xlink="http://www.w3.org/1999/xlink" xml:space="preserve" xmlns:serif="http://www.serif.com/" style="fill-rule:evenodd;clip-rule:evenodd;stroke-linejoin:round;stroke-miterlimit:2;">
    <g transform="matrix(1.12595,0,0,1.403649,-46.844062,-44.755817)">
        <path d="M230.799,678.545L230.799,776.239C230.799,789.642 217.234,800.524 200.524,800.524L139.974,800.524C123.264,800.524 109.699,789.642 109.699,776.239L109.699,678.545C109.699,665.141 123.264,654.26 139.974,654.26L200.524,654.26C217.234,654.26 230.799,665.141 230.799,678.545Z" style="fill:rgb(175,148,217);"/>
    </g>
    <g transform="matrix(1.12595,0,0,0.558441,149.717599,631.853585)">
        <path d="M230.799,690.826L230.799,763.958C230.799,784.139 222.673,800.524 212.664,800.524L127.834,800.524C117.825,800.524 109.699,784.139 109.699,763.958L109.699,690.826C109.699,670.644 117.825,654.26 127.834,654.26L212.664,654.26C222.673,654.26 230.799,670.644 230.799,690.826Z" style="fill:rgb(175,148,217);"/>
    </g>
    <g transform="matrix(1.12595,0,0,1.086696,355.133388,208.972708)">
        <path d="M230.799,685.628L230.799,769.155C230.799,786.468 217.234,800.524 200.524,800.524L139.974,800.524C123.264,800.524 109.699,786.468 109.699,769.155L109.699,685.628C109.699,668.315 123.264,654.26 139.974,654.26L200.524,654.26C217.234,654.26 230.799,668.315 230.799,685.628Z" style="fill:rgb(175,148,217);"/>
    </g>
    <g transform="matrix(1.12595,0,0,1.924357,555.236701,-461.595538)">
        <path d="M230.799,671.974L230.799,782.81C230.799,792.587 217.234,800.524 200.524,800.524L139.974,800.524C123.264,800.524 109.699,792.587 109.699,782.81L109.699,671.974C109.699,662.197 123.264,654.26 139.974,654.26L200.524,654.26C217.234,654.26 230.799,662.197 230.799,671.974Z" style="fill:rgb(175,148,217);"/>
    </g>
    <g transform="matrix(1.12595,0,0,1.924357,1010.338924,-461.595538)">
        <path d="M230.799,671.974L230.799,782.81C230.799,792.587 217.234,800.524 200.524,800.524L139.974,800.524C123.264,800.524 109.699,792.587 109.699,782.81L109.699,671.974C109.699,662.197 123.264,654.26 139.974,654.26L200.524,654.26C217.234,654.26 230.799,662.197 230.799,671.974Z" style="fill:rgb(175,148,217);"/>
    </g>
    <g transform="matrix(1.12595,0,0,3.335553,774.819097,-1591.291594)">
        <path d="M230.799,664.479L230.799,790.305C230.799,795.945 217.234,800.524 200.524,800.524L139.974,800.524C123.264,800.524 109.699,795.945 109.699,790.305L109.699,664.479C109.699,658.839 123.264,654.26 139.974,654.26L200.524,654.26C217.234,654.26 230.799,658.839 230.799,664.479Z" style="fill:rgb(175,148,217);"/>
    </g>
    <g transform="matrix(1.12595,0,0,5.471212,1219.296366,-3300.938565)">
        <path d="M230.799,660.49L230.799,794.294C230.799,797.732 217.234,800.524 200.524,800.524L139.974,800.524C123.264,800.524 109.699,797.732 109.699,794.294L109.699,660.49C109.699,657.051 123.264,654.26 139.974,654.26L200.524,654.26C217.234,654.26 230.799,657.051 230.799,660.49Z" style="fill:rgb(175,148,217);"/>
    </g>
    <g transform="matrix(1.12595,0,0,6.61828,1447.73289,-4219.194183)">
        <path d="M230.799,659.41L230.799,795.374C230.799,798.216 217.234,800.524 200.524,800.524L139.974,800.524C123.264,800.524 109.699,798.216 109.699,795.374L109.699,659.41C109.699,656.567 123.264,654.26 139.974,654.26L200.524,654.26C217.234,654.26 230.799,656.567 230.799,659.41Z" style="fill:rgb(175,148,217);"/>
    </g>
</svg>
