<?xml version="1.0" encoding="UTF-8" standalone="no"?>
<!DOCTYPE svg PUBLIC "-//W3C//DTD SVG 1.1//EN" "http://www.w3.org/Graphics/SVG/1.1/DTD/svg11.dtd">
<svg width="100%" height="100%" viewBox="0 0 2400 1800" version="1.1" xmlns="http://www.w3.org/2000/svg" xmlns:xlink="http://www.w3.org/1999/xlink" xml:space="preserve" xmlns:serif="http://www.serif.com/" style="fill-rule:evenodd;clip-rule:evenodd;stroke-linecap:round;stroke-linejoin:round;stroke-miterlimit:1.5;">
    <g transform="matrix(-2.070898,0.237076,-0.213111,-2.18559,1719.781811,4431.14863)">
        <path d="M149.705,1680.472L170.287,1680.472C170.287,1775.584 254.37,1852.687 358.093,1852.687C461.816,1852.687 545.899,1775.584 545.899,1680.472L566.481,1680.472C566.481,1786.007 473.183,1871.56 358.093,1871.56C243.004,1871.56 149.705,1786.007 149.705,1680.472Z" style="stroke:black;stroke-width:5.78px;"/>
    </g>
    <g transform="matrix(-2.070898,0.237076,-0.213111,-2.18559,2881.56366,4287.102691)">
        <path d="M149.705,1680.472L170.287,1680.472C170.287,1775.584 254.37,1852.687 358.093,1852.687C461.816,1852.687 545.899,1775.584 545.899,1680.472L566.481,1680.472C566.481,1786.007 473.183,1871.56 358.093,1871.56C243.004,1871.56 149.705,1786.007 149.705,1680.472Z" style="stroke:black;stroke-width:5.78px;"/>
    </g>
    <g transform="matrix(1.075499,-4.470662,5.998383,1.694197,-7341.135525,2953.085296)">
        <path d="M796.585,1218.873L813.41,1218.873C813.411,1285.877 848.269,1348.696 906.866,1387.29L897.174,1400.147C834.104,1358.606 796.585,1290.992 796.585,1218.873Z" style="stroke:black;stroke-width:2.29px;"/>
    </g>
</svg>
