<?xml version="1.0" encoding="UTF-8" standalone="no"?>
<!DOCTYPE svg PUBLIC "-//W3C//DTD SVG 1.1//EN" "http://www.w3.org/Graphics/SVG/1.1/DTD/svg11.dtd">
<svg width="100%" height="100%" viewBox="0 0 1418 1418" version="1.1" xmlns="http://www.w3.org/2000/svg" xmlns:xlink="http://www.w3.org/1999/xlink" xml:space="preserve" xmlns:serif="http://www.serif.com/" style="fill-rule:evenodd;clip-rule:evenodd;stroke-linecap:round;stroke-linejoin:round;stroke-miterlimit:1.5;">
    <g transform="matrix(1.078872,0,0,1.05363,-40.790863,-23.040624)">
        <path d="M678.329,842.313C657.214,846.908 652.644,877.09 639.02,893.863C623.177,913.368 588.232,936.964 583.276,959.34C578.319,981.717 597.273,1011.404 609.282,1028.122C620.134,1043.23 643.819,1046.035 655.327,1059.649C666.835,1073.262 669.428,1099.586 678.329,1109.803C685.419,1117.941 699.496,1125.592 708.731,1120.948C717.966,1116.304 725.236,1094.014 733.739,1081.939C741.868,1070.395 749.218,1057.473 759.744,1048.503C770.271,1039.534 786.6,1037.792 796.896,1028.122C807.422,1018.237 817.516,1003.838 822.902,989.191C828.474,974.036 835.717,953.851 830.332,937.19C823.521,916.116 807.128,878.409 782.035,862.747C756.701,846.934 702.165,837.127 678.329,842.313Z" style="fill:rgb(233,160,209);stroke:rgb(255,194,235);stroke-width:0.94px;"/>
    </g>
    <g transform="matrix(1.078872,0,0,1.05363,-40.790863,-23.040624)">
        <path d="M399.377,606.548C387.429,575.243 391.946,538.023 395.662,506.094C399.312,474.719 410.522,439.429 421.667,414.971C431.208,394.035 446.435,359.346 462.534,359.346C478.633,359.346 503.307,393.402 518.261,414.971C534.36,438.191 549.619,469.11 559.127,498.664C572.879,541.405 593.732,624.669 600.769,671.417C606.115,706.931 616.959,758.038 601.35,779.156C585.741,800.274 531.474,818.941 507.116,798.124C473.453,769.356 417.952,655.219 399.377,606.548Z" style="fill:rgb(246,139,211);stroke:rgb(255,194,235);stroke-width:0.94px;"/>
    </g>
    <g transform="matrix(1.078872,0,0,1.05363,-40.790863,-23.040624)">
        <path d="M802.389,735.321C820.892,756.007 897.501,724.544 928.783,707.391C957.091,691.87 978.999,662.73 990.083,632.408C1003.705,595.144 1017.637,529.314 1010.516,483.803C1003.395,438.293 965.625,374.516 947.359,359.346C932.685,347.159 913.763,378.68 900.919,392.782C885.13,410.12 864.028,437.241 852.623,463.37C838.764,495.119 825.329,542.345 817.768,583.275C809.396,628.6 783.887,714.635 802.389,735.321Z" style="fill:rgb(246,139,211);stroke:rgb(255,194,235);stroke-width:0.94px;"/>
    </g>
    <g transform="matrix(1.078872,0,0,1.05363,-40.790863,-23.040624)">
        <path d="M603.754,762.669C587.749,748.232 576.895,727.219 567.123,707.391C555.661,684.133 537.725,653.059 534.979,623.121C531.789,588.333 540.242,533.339 547.982,498.664C554.52,469.374 567.486,417.548 581.418,415.071C595.35,412.595 623.26,456.687 631.572,483.803C644.575,526.218 654.173,617.858 659.436,669.56C663.639,710.851 672.431,778.498 663.151,794.017C653.871,809.535 619.759,777.107 603.754,762.669Z" style="fill:rgb(244,149,213);stroke:rgb(255,194,235);stroke-width:0.94px;"/>
    </g>
    <g transform="matrix(1.250093,0,0,1.091038,-189.958966,-38.567635)">
        <path d="M802.389,760.581C816.631,774.822 840.221,712.586 850.765,684.42C862.233,653.787 871.508,611.144 871.198,576.779C870.895,543.101 856.072,505.181 848.908,478.23C843.217,456.82 839.979,415.383 828.215,415.073C816.45,414.764 786.846,451.444 778.32,476.373C767.837,507.023 761.849,558.023 765.317,598.972C769.329,646.34 788.148,746.339 802.389,760.581Z" style="fill:rgb(244,149,213);stroke:rgb(255,194,235);stroke-width:0.85px;"/>
    </g>
    <g transform="matrix(1.078872,0,0,1.05363,-40.790863,-23.040624)">
        <path d="M752.314,891.037C730.213,896.303 788.537,924.258 802.468,937.19C813.681,947.598 822.761,960.799 835.905,968.628C850.456,977.295 871.79,982.41 889.774,989.191C908.659,996.312 928.791,1005.878 949.216,1011.352C973.429,1017.84 1005.898,1028.411 1035.048,1028.122C1066.317,1027.813 1109.031,1015.983 1136.83,1009.494C1158.94,1004.334 1182.96,998.169 1201.845,989.191C1219.551,980.774 1262.009,971.231 1250.142,955.625C1234.353,934.86 1163.152,871.875 1107.109,864.604C1024.138,853.84 803.088,878.939 752.314,891.037Z" style="fill:rgb(231,146,203);stroke:rgb(255,194,235);stroke-width:0.94px;"/>
    </g>
    <g transform="matrix(1.078872,0,0,1.05363,-40.790863,-23.040624)">
        <path d="M759.744,891.037C741.869,895.863 792.871,910.781 808.041,918.474C821.908,925.505 836.311,931.463 850.765,937.19C867.174,943.692 887.509,951.966 906.492,957.483C928.783,963.96 958.814,972.033 984.51,976.058C1009.658,979.997 1035.216,981.631 1060.67,981.631C1087.295,981.631 1121.041,978.845 1144.261,976.058C1163.069,973.801 1185.746,968.628 1199.988,964.913C1210.226,962.242 1223.826,958.388 1229.709,953.767C1234.293,950.166 1239.736,940.951 1235.281,937.19C1222.898,926.735 1182.031,906.192 1155.406,891.037C1128.879,875.937 1106.054,846.258 1075.531,846.258C1009.587,846.258 804.326,879.001 759.744,891.037Z" style="fill:rgb(233,160,209);stroke:rgb(255,194,235);stroke-width:0.94px;"/>
    </g>
    <g transform="matrix(1.078872,0,0,1.05363,-40.790863,-23.040624)">
        <path d="M300.926,855.316C271.998,863.754 244.58,887.981 222.908,900.984C205.4,911.488 180.803,925.466 170.896,933.334C166.559,936.779 161.174,943.153 163.466,948.195C166.562,955.006 178.87,968.045 189.472,974.201C208.667,985.346 248.834,1006.089 278.635,1015.067C307.544,1023.777 338.864,1028.689 368.276,1028.07C397.687,1027.451 429.177,1017.853 455.104,1011.352C478.465,1005.494 505.877,996.182 523.834,989.061C537.479,983.65 551.697,975.129 562.842,968.628C572.484,963.003 582.362,957.468 590.706,950.052C605.257,937.12 674.613,904.492 650.148,891.037C619.189,874.009 463.153,853.84 404.949,847.886C370.367,844.349 331.266,846.467 300.926,855.316Z" style="fill:rgb(231,146,203);stroke:rgb(255,194,235);stroke-width:0.94px;"/>
    </g>
    <g transform="matrix(1.078872,0,0,1.05363,-40.790863,-23.040624)">
        <path d="M315.786,842.313C289.197,842.313 275.243,877.052 252.629,891.037C229.1,905.588 189.781,920.402 174.611,929.619C168.578,933.285 160.989,940.145 161.608,946.337C162.227,952.529 170.373,963.003 178.326,966.77C190.091,972.343 213.997,976.608 232.196,979.773C253.558,983.488 281.544,988.541 306.498,989.061C336.219,989.68 377.395,988.132 410.522,983.488C442.649,978.985 482.658,968.318 505.258,961.198C519.784,956.621 532.171,946.869 546.124,940.764C560.985,934.263 579.561,930.477 594.421,922.189C609.282,913.901 651.753,895.757 635.288,891.037C588.848,877.724 379.563,842.313 315.786,842.313Z" style="fill:rgb(233,160,209);stroke:rgb(255,194,235);stroke-width:0.94px;"/>
    </g>
    <g transform="matrix(1.078872,0,0,1.05363,-40.790863,-23.040624)">
        <path d="M735.596,862.747C738.382,858.722 755.143,869.305 765.317,870.177C776.153,871.106 789.111,870.875 800.611,868.319C817.329,864.604 847.36,856.245 865.626,847.886C881.866,840.454 899.062,826.215 910.207,818.165C918.048,812.502 923.829,802.066 932.498,799.589C941.167,797.113 952.366,804.913 962.219,803.305C977.389,800.828 1004.634,793.398 1023.519,784.729C1042.25,776.131 1059.442,764.174 1075.531,751.293C1091.63,738.403 1110.205,720.704 1120.112,707.391C1127.858,696.983 1127.852,680.509 1134.973,671.417C1141.856,662.629 1151.786,654.42 1162.836,652.842C1195.344,648.198 1305.25,637.362 1330.017,643.554C1346.192,647.597 1320.088,675.738 1311.442,689.993C1299.987,708.878 1281.251,737.427 1261.287,756.865C1237.758,779.775 1204.219,809.526 1170.267,827.453C1131.567,847.886 1073.054,868.319 1029.092,879.465C989.188,889.581 944.263,890.92 906.492,894.325C871.908,897.443 828.784,899.898 802.468,899.898C784.416,899.898 759.744,900.517 748.599,894.325C738.648,888.797 732.81,866.771 735.596,862.747Z" style="fill:rgb(231,146,203);stroke:rgb(255,194,235);stroke-width:0.94px;"/>
    </g>
    <g transform="matrix(1.078872,0,0,1.05363,-40.790863,-23.040624)">
        <path d="M726.308,859.032C728.475,856.245 754.394,868.652 769.032,870.177C783.893,871.725 800.676,872.911 815.471,868.319C833.428,862.747 858.195,847.577 876.771,836.741C894.127,826.617 912.684,808.258 926.925,803.305C938.098,799.418 950.77,809.996 962.219,807.02C977.699,802.995 1001.847,787.825 1019.804,779.156C1036.513,771.089 1055.168,766.212 1069.958,755.008C1085.747,743.047 1103.394,721.323 1114.54,707.391C1123.352,696.376 1128.471,680.509 1136.83,671.417C1144.386,663.2 1153.695,654.745 1164.694,652.842C1180.793,650.055 1210.545,656.045 1233.424,654.699C1259.739,653.151 1305.559,644.483 1322.587,643.554C1327.296,643.297 1338.328,645.287 1335.59,649.127C1327.85,659.978 1297.556,690.547 1276.148,708.661C1247.975,732.5 1206.465,769.44 1166.551,792.159C1119.803,818.769 1043.333,852.22 995.655,868.319C958.715,880.793 914.851,885.037 880.486,888.753C850.316,892.014 810.208,890.92 789.466,890.61C778.253,890.443 766.059,891.91 756.029,886.895C745.503,881.632 724.141,861.818 726.308,859.032Z" style="fill:rgb(233,160,209);stroke:rgb(255,194,235);stroke-width:0.94px;"/>
    </g>
    <g transform="matrix(1.078872,0,0,1.05363,-40.790863,-23.040624)">
        <path d="M652.006,891.037C633.74,896.922 596.279,898.435 568.415,899.915C540.591,901.393 512.654,901.286 484.825,899.915C454.794,898.435 419.5,897.851 388.231,891.037C356.962,884.223 326.164,873.034 297.211,859.032C263.774,842.862 219.193,819.078 187.614,794.017C157.092,769.793 128.172,733.742 107.739,708.661C91.339,688.532 40.557,651.287 65.015,643.532C89.473,635.776 215.478,651.275 254.487,662.13C275.181,667.888 285.701,691.846 299.068,708.661C313,726.187 319.007,753.6 338.077,767.284C360.058,783.058 407.426,796.992 430.955,803.305C446.516,807.479 468.416,801.137 479.252,805.162C487.959,808.396 487.762,823.107 495.97,827.453C511.759,835.812 556.341,848.505 573.988,855.316C583.55,859.007 591.822,866.208 601.851,868.319C613.616,870.796 631.882,870.796 644.575,870.177C655.861,869.626 676.773,861.128 678.012,864.604C679.25,868.081 663.77,887.246 652.006,891.037Z" style="fill:rgb(231,146,203);stroke:rgb(255,194,235);stroke-width:0.94px;"/>
    </g>
    <g transform="matrix(1.078872,0,0,1.05363,-40.790863,-23.040624)">
        <path d="M678.012,859.032C675.535,855.245 653.577,867.214 640.86,868.319C626.619,869.558 608.043,869.867 592.564,866.462C577.084,863.056 562.233,855.374 547.982,847.886C529.716,838.289 495.97,816.307 482.967,808.877C478.873,806.538 474.581,804.266 469.964,803.305C462.534,801.757 448.797,801.573 438.386,799.589C425.383,797.113 406.473,794.956 391.946,788.444C373.99,780.395 348.351,767.337 330.647,751.293C310.833,733.336 286.375,696.185 273.062,680.705C266.211,672.738 261.1,660.346 250.771,658.414C217.645,652.219 88.854,630.219 74.303,643.532C59.752,656.844 129.798,710.949 163.466,738.29C199.688,767.705 251.7,797.732 291.638,820.023C327.437,840.003 363.258,862.335 403.092,872.034C451.698,883.87 541.171,887.87 583.276,891.037C607.356,892.848 639.931,896.371 655.721,891.037C668.038,886.876 680.488,862.818 678.012,859.032Z" style="fill:rgb(233,160,209);stroke:rgb(255,194,235);stroke-width:0.94px;"/>
    </g>
    <g transform="matrix(1.078872,0,0,1.114072,-40.790863,-47.229369)">
        <path d="M913.922,803.305C917.971,776.985 965.767,687.185 982.795,643.532C995.809,610.169 1004.038,570.486 1016.089,541.388C1026.582,516.048 1037.271,489.786 1055.097,468.943C1075.221,445.413 1118.564,399.284 1136.83,400.213C1155.096,401.141 1161.69,448.235 1164.694,474.515C1168.409,507.023 1164.384,561.821 1159.121,595.257C1154.767,622.917 1147.023,650.83 1133.115,675.132C1116.707,703.804 1089.772,746.232 1060.67,767.284C1031.576,788.331 982.962,795.444 958.504,801.447C944.059,804.993 911.661,818.005 913.922,803.305Z" style="fill:rgb(231,146,203);stroke:rgb(255,194,235);stroke-width:0.91px;"/>
    </g>
    <g transform="matrix(1.078872,0,0,1.112471,-40.790863,-46.413482)">
        <path d="M904.635,770.803C912.51,739.843 979.438,648.354 996.466,610.118C1005.891,588.954 995.936,561.85 1006.801,541.388C1023.074,510.738 1071.506,450.057 1094.106,426.219C1106.894,412.731 1133.115,392.163 1142.403,398.355C1151.691,404.547 1150.835,441.58 1149.833,463.37C1148.595,490.305 1140.546,533.648 1134.973,559.963C1130.55,580.851 1124.67,601.58 1116.397,621.263C1107.419,642.625 1095.21,667.248 1081.103,688.135C1066.885,709.188 1051.142,731.195 1031.088,747.578C1009.107,765.534 970.292,792.003 949.216,795.874C932.447,798.954 900.432,787.326 904.635,770.803Z" style="fill:rgb(233,160,209);stroke:rgb(255,194,235);stroke-width:0.91px;"/>
    </g>
    <g transform="matrix(1.078872,0,0,1.077723,-40.790863,-32.565657)">
        <path d="M471.822,767.284C460.367,741.504 430.336,679.649 417.952,641.69C407.181,608.675 414.699,569.711 397.519,539.53C374.609,499.282 302.783,423.917 280.492,400.199C276.616,396.074 267.889,393.334 263.774,397.221C258.202,402.487 249.089,419.154 247.056,431.791C243.341,454.89 241.484,506.918 241.484,535.815C241.484,559.009 240.549,582.912 247.056,605.175C255.415,633.771 267.169,679.408 291.638,707.391C319.501,739.257 381.73,781.54 414.237,796.37C436.207,806.393 477.085,801.217 486.682,796.37C496.28,791.522 476.243,777.234 471.822,767.284Z" style="fill:rgb(231,146,203);stroke:rgb(255,194,235);stroke-width:0.93px;"/>
    </g>
    <g transform="matrix(1.078872,0,0,1.05363,-40.790863,-23.040624)">
        <path d="M488.54,766.595C476.775,738.124 439.314,676.861 423.525,639.327C410.296,607.879 410.274,571.265 393.804,541.388C373.371,504.322 321.669,440.462 300.926,416.931C293.048,407.995 276.777,395.555 269.347,400.199C261.917,404.843 256.731,429.315 256.344,444.794C255.725,469.564 259.44,516.396 265.632,548.818C271.553,579.824 279.738,610.915 293.495,639.327C307.737,668.738 326.772,700.821 351.08,725.287C377.086,751.461 425.692,782.226 449.531,796.37C462.908,804.307 487.611,815.113 494.113,810.151C500.614,805.188 494.13,780.122 488.54,766.595Z" style="fill:rgb(233,160,209);stroke:rgb(255,194,235);stroke-width:0.94px;"/>
    </g>
    <g transform="matrix(1.078872,0,0,1.05363,-40.436652,-24.460954)">
        <path d="M642.718,756.865C632.977,740.275 617.254,726.153 612.997,707.391C606.186,677.377 598.446,619.616 601.851,576.779C605.257,533.941 619.017,491.338 633.43,450.367C650.1,402.983 678.031,289.688 701.87,292.474C725.708,295.26 760.006,419.701 776.463,467.085C788.746,502.453 796.896,545.2 800.611,576.779C803.719,603.196 801.23,630.607 798.753,656.557C796.314,682.116 797.833,709.823 785.75,732.477C773.367,755.697 742.354,781.51 724.451,795.874C711.075,806.605 691.951,825.162 678.329,818.661C664.707,812.159 653.607,775.41 642.718,756.865Z" style="fill:rgb(233,160,209);stroke:rgb(255,194,235);stroke-width:0.94px;"/>
    </g>
    <g transform="matrix(1.154444,0,0,1.106512,-91.984747,-34.32148)">
        <path d="M631.572,736.432C623.684,727.608 613.707,718.946 611.139,707.391C607.424,690.673 608.662,657.599 609.282,636.124C609.837,616.847 610.388,597.299 614.854,578.539C619.498,559.035 625.935,537.045 637.145,519.097C651.648,495.877 680.817,438.912 701.87,439.222C722.922,439.531 748.551,492.781 763.46,520.955C777.748,547.955 786.679,581.016 791.323,608.26C795.589,633.286 794.729,661.201 791.323,684.42C788.112,706.313 784.071,729.805 770.89,747.578C757.113,766.153 720.165,785.658 708.661,795.874C705.005,799.121 705.742,811.863 701.87,808.877C689.021,798.97 646.694,753.346 631.572,736.432Z" style="fill:rgb(255,207,239);stroke:rgb(255,194,235);stroke-width:0.88px;"/>
    </g>
    <g transform="matrix(1.142594,0,0,1.137197,-108.480593,-71.240443)">
        <path d="M701.87,842.313C697.38,830.549 700.155,809.004 708.661,795.874C717.688,781.943 739.466,768.94 756.029,758.723C772.298,748.688 791.942,742.918 808.041,734.575C823.302,726.665 839.201,719.399 852.623,708.661C869.65,695.039 893.158,673.433 910.207,652.842C928.164,631.155 949.526,590.304 960.362,578.539C963.821,574.783 973.326,577.513 975.222,582.254C978.937,591.542 983.68,616.783 982.652,634.266C981.414,655.334 975.448,684.56 967.792,708.661C959.433,734.977 947.668,770.193 932.498,792.159C918.529,812.385 898.132,828.292 876.771,840.456C854.48,853.149 822.283,863.985 798.753,868.319C778.04,872.135 751.743,870.796 735.596,866.462C722.242,862.877 706.359,854.078 701.87,842.313Z" style="fill:rgb(255,194,235);stroke:rgb(255,194,235);stroke-width:0.88px;"/>
    </g>
    <g transform="matrix(1.078872,0,0,1.146091,-40.790863,-75.844559)">
        <path d="M708.661,844.171C706.804,829.001 683.429,786.896 663.151,768.011C642.873,749.126 605.567,740.751 586.991,730.859C574.724,724.327 562.577,717.309 551.697,708.661C539.623,699.064 525.525,686.388 514.546,673.275C495.351,650.349 450.769,572.347 436.528,571.109C422.287,569.87 424.281,634.537 429.098,665.845C434.67,702.067 442.236,755.478 469.964,788.444C497.828,821.571 562.223,852.84 596.279,864.604C620.922,873.117 655.566,862.437 674.296,859.032C686.575,856.799 710.178,856.559 708.661,844.171Z" style="fill:rgb(255,194,235);stroke:rgb(255,194,235);stroke-width:0.9px;"/>
    </g>
</svg>
