<?xml version="1.0" encoding="UTF-8" standalone="no"?>
<!DOCTYPE svg PUBLIC "-//W3C//DTD SVG 1.1//EN" "http://www.w3.org/Graphics/SVG/1.1/DTD/svg11.dtd">
<svg width="100%" height="100%" viewBox="0 0 2400 1800" version="1.1" xmlns="http://www.w3.org/2000/svg" xmlns:xlink="http://www.w3.org/1999/xlink" xml:space="preserve" xmlns:serif="http://www.serif.com/" style="fill-rule:evenodd;clip-rule:evenodd;stroke-linecap:round;stroke-linejoin:round;stroke-miterlimit:1.5;">
    <g transform="matrix(1.340474,0,0,1.416918,-1388.629866,421.85336)">
        <g transform="matrix(0.904695,0,0,1,97.61531,0)">
            <g transform="matrix(1384.266835,0,0,1384.266835,1832.636598,773.78768)">
            </g>
            <text x="1024.246px" y="773.788px" style="font-family:'ArialMT', 'Arial', sans-serif;font-size:1384.267px;">&gt;</text>
        </g>
    </g>
    <g transform="matrix(-1.340474,0.000852,-0.000806,-1.416917,3788.589198,1229.817085)">
        <g transform="matrix(0.904695,0,0,1,97.61531,0)">
            <g transform="matrix(1384.266835,0,0,1384.266835,1832.636598,773.78768)">
            </g>
            <text x="1024.246px" y="773.788px" style="font-family:'ArialMT', 'Arial', sans-serif;font-size:1384.267px;">&gt;</text>
        </g>
    </g>
    <g transform="matrix(1.900322,0,0,1.553948,-1093.348172,-381.626756)">
        <path d="M1470.118,1141.264L1470.118,1157.778C1470.118,1162.335 1467.093,1166.034 1463.366,1166.034L957.204,1166.034C953.478,1166.034 950.453,1162.335 950.453,1157.778L950.453,1141.264C950.453,1136.707 953.478,1133.007 957.204,1133.007L1463.366,1133.007C1467.093,1133.007 1470.118,1136.707 1470.118,1141.264Z" style="stroke:rgb(255,213,213);stroke-width:2.4px;"/>
    </g>
</svg>
