<?xml version="1.0" encoding="UTF-8" standalone="no"?>
<!DOCTYPE svg PUBLIC "-//W3C//DTD SVG 1.1//EN" "http://www.w3.org/Graphics/SVG/1.1/DTD/svg11.dtd">
<svg width="100%" height="100%" viewBox="0 0 2400 1800" version="1.1" xmlns="http://www.w3.org/2000/svg" xmlns:xlink="http://www.w3.org/1999/xlink" xml:space="preserve" xmlns:serif="http://www.serif.com/" style="fill-rule:evenodd;clip-rule:evenodd;stroke-linecap:round;stroke-linejoin:round;stroke-miterlimit:1.5;">
    <g transform="matrix(-2.113694,0.796354,-0.719421,-1.994925,5679.72915,1019.0699)">
        <path d="M1809.817,935.976L1352.175,935.976C1328.985,901.369 1316.776,862.111 1316.776,822.149C1316.776,696.504 1435.169,594.495 1580.996,594.495C1726.823,594.495 1845.216,696.504 1845.216,822.149C1845.216,862.111 1833.008,901.369 1809.817,935.976Z" style="fill:white;"/>
        <clipPath id="_clip1">
            <path d="M1809.817,935.976L1352.175,935.976C1328.985,901.369 1316.776,862.111 1316.776,822.149C1316.776,696.504 1435.169,594.495 1580.996,594.495C1726.823,594.495 1845.216,696.504 1845.216,822.149C1845.216,862.111 1833.008,901.369 1809.817,935.976Z"/>
        </clipPath>
        <g clip-path="url(#_clip1)">
            <g transform="matrix(-0.999997,-0.0025,0.0025,-0.999997,2427.138472,1763.184283)">
                <ellipse cx="848.493" cy="849.288" rx="163.958" ry="146.256" style="stroke:black;stroke-width:1.92px;"/>
            </g>
        </g>
        <path d="M1809.817,935.976L1352.175,935.976C1328.985,901.369 1316.776,862.111 1316.776,822.149C1316.776,696.504 1435.169,594.495 1580.996,594.495C1726.823,594.495 1845.216,696.504 1845.216,822.149C1845.216,862.111 1833.008,901.369 1809.817,935.976Z" style="fill:none;stroke:white;stroke-width:1.92px;"/>
    </g>
    <g transform="matrix(-2.130264,-0.748744,0.674885,-2.01114,3468.016777,3472.305931)">
        <path d="M1809.817,935.976L1352.175,935.976C1328.985,901.369 1316.776,862.111 1316.776,822.149C1316.776,696.504 1435.169,594.495 1580.996,594.495C1726.823,594.495 1845.216,696.504 1845.216,822.149C1845.216,862.111 1833.008,901.369 1809.817,935.976Z" style="fill:white;"/>
        <clipPath id="_clip2">
            <path d="M1809.817,935.976L1352.175,935.976C1328.985,901.369 1316.776,862.111 1316.776,822.149C1316.776,696.504 1435.169,594.495 1580.996,594.495C1726.823,594.495 1845.216,696.504 1845.216,822.149C1845.216,862.111 1833.008,901.369 1809.817,935.976Z"/>
        </clipPath>
        <g clip-path="url(#_clip2)">
            <g transform="matrix(-0.999997,-0.0025,0.0025,-0.999997,2427.138472,1763.184283)">
                <ellipse cx="848.493" cy="849.288" rx="163.958" ry="146.256" style="stroke:black;stroke-width:1.89px;"/>
            </g>
        </g>
        <path d="M1809.817,935.976L1352.175,935.976C1328.985,901.369 1316.776,862.111 1316.776,822.149C1316.776,696.504 1435.169,594.495 1580.996,594.495C1726.823,594.495 1845.216,696.504 1845.216,822.149C1845.216,862.111 1833.008,901.369 1809.817,935.976Z" style="fill:none;stroke:white;stroke-width:1.89px;"/>
    </g>
    <g transform="matrix(1.210909,0,0,2.014291,-61.305272,-1013.966889)">
        <path d="M1363.958,1197.248L1363.958,1275.098C1363.958,1296.582 1334.945,1314.024 1299.208,1314.024L1051.251,1314.024C1015.515,1314.024 986.501,1296.582 986.501,1275.098L986.501,1197.248C986.501,1175.764 1015.515,1158.322 1051.251,1158.322L1299.208,1158.322C1334.945,1158.322 1363.958,1175.764 1363.958,1197.248Z" style="fill:rgb(255,207,207);stroke:rgb(255,213,213);stroke-width:2.51px;"/>
    </g>
    <g transform="matrix(1.854835,0.622707,-0.27701,0.8631,-865.416509,-274.759331)">
        <path d="M1144.561,149.803L1144.561,171.035C1144.561,176.895 1142.357,181.651 1139.643,181.651L571.497,181.651C568.783,181.651 566.579,176.895 566.579,171.035L566.579,149.803C566.579,143.944 568.783,139.187 571.497,139.187L1139.643,139.187C1142.357,139.187 1144.561,143.944 1144.561,149.803Z" style="stroke:black;stroke-width:2.72px;"/>
    </g>
    <g transform="matrix(1.834722,-0.682192,0.303471,0.853741,112.054855,826.371212)">
        <path d="M1144.561,149.803L1144.561,171.035C1144.561,176.895 1142.359,181.651 1139.647,181.651L571.493,181.651C568.781,181.651 566.579,176.895 566.579,171.035L566.579,149.803C566.579,143.944 568.781,139.187 571.493,139.187L1139.647,139.187C1142.359,139.187 1144.561,143.944 1144.561,149.803Z" style="stroke:black;stroke-width:2.75px;"/>
    </g>
</svg>
