<?xml version="1.0" encoding="UTF-8" standalone="no"?>
<!DOCTYPE svg PUBLIC "-//W3C//DTD SVG 1.1//EN" "http://www.w3.org/Graphics/SVG/1.1/DTD/svg11.dtd">
<svg width="100%" height="100%" viewBox="0 0 2400 1800" version="1.1" xmlns="http://www.w3.org/2000/svg" xmlns:xlink="http://www.w3.org/1999/xlink" xml:space="preserve" xmlns:serif="http://www.serif.com/" style="fill-rule:evenodd;clip-rule:evenodd;stroke-linecap:round;stroke-linejoin:round;stroke-miterlimit:1.5;">
    <g transform="matrix(11.448264,0,0,12.654274,-4552.695852,-6825.481693)">
        <g transform="matrix(94.460525,0,0,94.460525,454.646255,615.182801)">
        </g>
        <text x="402.112px" y="615.183px" style="font-family:'ArialMT', 'Arial', sans-serif;font-size:94.461px;">u</text>
    </g>
    <g transform="matrix(11.448264,0,0,12.654274,-2847.24854,-6825.481693)">
        <g transform="matrix(94.460525,0,0,94.460525,454.646255,615.182801)">
        </g>
        <text x="402.112px" y="615.183px" style="font-family:'ArialMT', 'Arial', sans-serif;font-size:94.461px;">u</text>
    </g>
    <g transform="matrix(1.802348,0,0,1.52413,-723.343117,-701.732077)">
        <path d="M1087.698,1280.156C1122.625,1245.507 1192.479,1245.507 1227.407,1262.831C1262.335,1280.156 1262.335,1314.806 1227.407,1349.455C1202.957,1375.442 1140.089,1401.429 1087.698,1418.754C1035.307,1401.429 972.438,1375.442 947.989,1349.455C913.061,1314.806 913.061,1280.156 947.989,1262.831C982.916,1245.507 1052.77,1245.507 1087.698,1280.156Z" style="stroke:black;stroke-width:2.5px;"/>
    </g>
</svg>
