<?xml version="1.0" encoding="UTF-8" standalone="no"?><!DOCTYPE svg PUBLIC "-//W3C//DTD SVG 1.1//EN" "http://www.w3.org/Graphics/SVG/1.1/DTD/svg11.dtd"><svg width="100%" height="100%" viewBox="0 0 432 288" version="1.1" xmlns="http://www.w3.org/2000/svg" xmlns:xlink="http://www.w3.org/1999/xlink" xml:space="preserve" xmlns:serif="http://www.serif.com/" style="fill-rule:evenodd;clip-rule:evenodd;stroke-linecap:round;stroke-linejoin:round;stroke-miterlimit:1.5;"><g><clipPath id="_clip1"><rect x="129.174" y="54.364" width="87.119" height="167.989"/></clipPath><g clip-path="url(#_clip1)"><path d="M150.581,112.72c-6.684,6.227 -17.142,13.73 -20.335,18.373c-1.805,2.626 -1.277,7.489 1.179,9.486c2.456,1.997 11.199,0.95 13.557,2.496c1.897,1.243 0.57,4.51 0.589,6.778c0.098,11.739 -0.54,51.82 0,63.658c0.122,2.68 0.594,6.932 3.242,7.368c8.055,1.326 37.281,0.786 45.091,0.589c0.833,-0.021 1.743,-0.935 1.768,-1.768c0.246,-8.252 -0.884,-39.099 -0.295,-47.743c0.128,-1.872 1.965,-3.927 3.831,-4.126c6.435,-0.688 28.342,-0.639 34.776,0c1.797,0.178 3.698,2.03 3.831,3.831c0.639,8.645 -1.179,39.688 0,48.038c0.343,2.432 4.621,1.929 7.073,2.063c7.171,0.393 29.029,0.933 35.955,0.295c2.309,-0.213 5.409,-1.815 5.6,-4.126c1.081,-13.115 -0.393,-62.086 0.884,-74.562c0.23,-2.25 4.563,0.161 6.778,-0.295c2.259,-0.465 5.01,-1.022 6.778,-2.496c1.768,-1.474 3.586,-4.764 3.831,-6.346c0.201,-1.294 -1.417,-2.231 -2.358,-3.141c-13.409,-12.967 -63.755,-61.875 -78.099,-74.663c-2.048,-1.825 -5.707,-2.014 -7.966,-2.063c-1.954,-0.042 -4.129,0.471 -5.59,1.768c-10.952,9.726 -46.712,44.092 -60.121,56.585Z" style="fill:#383838;stroke:#383838;stroke-width:0.24px;"/></g><clipPath id="_clip2"><rect x="215.707" y="54.364" width="87.119" height="167.989"/></clipPath><g clip-path="url(#_clip2)"><path d="M281.419,112.72c6.684,6.227 17.142,13.73 20.335,18.373c1.805,2.626 1.277,7.489 -1.179,9.486c-2.456,1.997 -11.199,0.95 -13.557,2.496c-1.897,1.243 -0.57,4.51 -0.589,6.778c-0.098,11.739 0.54,51.82 0,63.658c-0.122,2.68 -0.594,6.932 -3.242,7.368c-8.055,1.326 -37.281,0.786 -45.091,0.589c-0.833,-0.021 -1.743,-0.935 -1.768,-1.768c-0.246,-8.252 0.884,-39.099 0.295,-47.743c-0.128,-1.872 -1.965,-3.927 -3.831,-4.126c-6.435,-0.688 -28.342,-0.639 -34.776,0c-1.797,0.178 -3.698,2.03 -3.831,3.831c-0.639,8.645 1.179,39.688 0,48.038c-0.343,2.432 -4.621,1.929 -7.073,2.063c-7.171,0.393 -29.029,0.933 -35.955,0.295c-2.309,-0.213 -5.409,-1.815 -5.6,-4.126c-1.081,-13.115 0.393,-62.086 -0.884,-74.562c-0.23,-2.25 -4.563,0.161 -6.778,-0.295c-2.259,-0.465 -5.01,-1.022 -6.778,-2.496c-1.768,-1.474 -3.586,-4.764 -3.831,-6.346c-0.201,-1.294 1.417,-2.231 2.358,-3.141c13.409,-12.967 63.755,-61.875 78.099,-74.663c2.048,-1.825 5.707,-2.014 7.966,-2.063c1.954,-0.042 4.129,0.471 5.59,1.768c10.952,9.726 46.712,44.092 60.121,56.585Z" style="fill:#383838;stroke:#383838;stroke-width:0.24px;"/></g></g></svg>