<?xml version="1.0" encoding="UTF-8" standalone="no"?>
<!DOCTYPE svg PUBLIC "-//W3C//DTD SVG 1.1//EN" "http://www.w3.org/Graphics/SVG/1.1/DTD/svg11.dtd">
<svg width="100%" height="100%" viewBox="0 0 2400 1800" version="1.1" xmlns="http://www.w3.org/2000/svg" xmlns:xlink="http://www.w3.org/1999/xlink" xml:space="preserve" xmlns:serif="http://www.serif.com/" style="fill-rule:evenodd;clip-rule:evenodd;stroke-linecap:round;stroke-linejoin:round;stroke-miterlimit:1.5;">
    <g transform="matrix(-0.003577,-1.641888,1.461741,-0.004018,430.488045,1525.417251)">
        <path d="M352.799,946.595C345.17,977.773 338.976,1026.913 338.976,1080.216C338.976,1133.518 345.17,1182.659 352.799,1213.837C327.368,1213.837 306.722,1153.963 306.722,1080.216C306.722,1006.468 327.368,946.595 352.799,946.595Z" style="stroke:black;stroke-width:40.2px;"/>
    </g>
    <g transform="matrix(-0.003577,-1.641888,1.461741,-0.004018,-1185.955144,1525.417251)">
        <path d="M352.799,946.595C345.17,977.773 338.976,1026.913 338.976,1080.216C338.976,1133.518 345.17,1182.659 352.799,1213.837C327.368,1213.837 306.722,1153.963 306.722,1080.216C306.722,1006.468 327.368,946.595 352.799,946.595Z" style="stroke:black;stroke-width:40.2px;"/>
    </g>
    <g transform="matrix(2.140743,0,0,2.166759,-1342.676032,-1448.799928)">
        <clipPath id="_clip1">
            <rect x="1157.11" y="1277.269" width="140.537" height="68.711"/>
        </clipPath>
        <g clip-path="url(#_clip1)">
            <ellipse cx="1172.957" cy="1354.37" rx="115.191" ry="66.811" style="fill-opacity:0;stroke:black;stroke-width:6.38px;"/>
        </g>
    </g>
</svg>
