<?xml version="1.0" encoding="UTF-8" standalone="no"?><!DOCTYPE svg PUBLIC "-//W3C//DTD SVG 1.1//EN" "http://www.w3.org/Graphics/SVG/1.1/DTD/svg11.dtd"><svg width="100%" height="100%" viewBox="0 0 864 720" version="1.1" xmlns="http://www.w3.org/2000/svg" xmlns:xlink="http://www.w3.org/1999/xlink" xml:space="preserve" xmlns:serif="http://www.serif.com/" style="fill-rule:evenodd;clip-rule:evenodd;stroke-linecap:round;stroke-linejoin:round;stroke-miterlimit:1.5;"><path d="M473.882,290.395c-53.078,-18.158 -111.813,5.839 -131.188,53.598c-17.885,44.085 7.335,93.411 56.33,110.172c44.541,15.237 93.829,-4.9 110.088,-44.977c14.633,-36.07 -6.001,-76.427 -46.088,-90.141c-35.633,-12.19 -75.063,3.92 -88.07,35.982c-11.381,28.054 4.668,59.444 35.846,70.11c26.725,9.142 56.297,-2.94 66.053,-26.986c8.129,-20.039 -3.334,-42.46 -25.605,-50.078c-17.816,-6.095 -37.532,1.96 -44.035,17.991c-4.878,12.023 2,25.476 15.363,30.047c8.908,3.047 18.766,-0.98 22.018,-8.995c1.626,-4.008 -0.667,-8.492 -5.121,-10.016" style="fill:none;stroke:#d5dbdb;stroke-width:13.4px;"/><path d="M434.826,491.198c-31.93,17.389 -124.249,86.95 -139.484,115.369c-11.261,21.007 24.193,45.746 48.077,55.141c32.967,12.968 118.131,24.303 149.724,22.669c17.957,-0.929 40.383,-16.434 39.835,-32.472c-1.037,-30.357 -29.695,-122.885 -46.054,-149.669c-8.539,-13.982 -36.863,-19.334 -52.098,-11.037Z" style="fill:#ffab91;stroke:#ffab91;stroke-width:0.24px;"/><path d="M139.024,332.699c0,0 131.873,41.325 153.732,76.962c26.343,42.948 11.494,96.559 -33.139,119.645c-44.633,23.086 -102.257,6.96 -128.6,-35.988c-21.859,-35.637 8.007,-160.618 8.007,-160.618Z" style="fill:#d6eaf8;stroke:#d6eaf8;stroke-width:0.24px;"/><path d="M334.817,73.108c7.156,-33.287 73.073,-61.786 90.753,-58.442c17.68,3.344 4.467,69.27 15.325,78.504c10.858,9.234 45.445,-39.702 49.823,-23.098c5.684,21.554 -5.758,122.038 -15.722,152.42c-5.265,16.053 -35.635,33.433 -44.063,29.873c-8.428,-3.56 1.617,-45.228 -6.503,-51.233c-8.12,-6.005 -34.043,26.88 -42.217,15.204c-14.936,-21.337 -54.623,-109.616 -47.397,-143.228Z" style="fill:#fff24a;stroke:#fff24a;stroke-width:2.3px;"/><ellipse cx="611.974" cy="210.985" rx="98.157" ry="88.91" style="fill:#fff9ae;stroke:#fff9ae;stroke-width:0.24px;"/><ellipse cx="222.664" cy="210.985" rx="98.157" ry="88.91" style="fill:#f5b7b1;stroke:#fff9ae;stroke-width:0.24px;"/><path d="M740.983,396.185l0,80.607c0,22.244 -18.059,40.304 -40.304,40.304l-106.131,0c-22.244,0 -40.304,-18.059 -40.304,-40.304l0,-80.607c0,-22.244 18.059,-40.304 40.304,-40.304l106.131,0c22.244,0 40.304,18.059 40.304,40.304Z" style="fill:#e6e6fa;stroke:#e6e6fa;stroke-width:2.95px;"/></svg>