<?xml version="1.0" encoding="UTF-8" standalone="no"?>
<!DOCTYPE svg PUBLIC "-//W3C//DTD SVG 1.1//EN" "http://www.w3.org/Graphics/SVG/1.1/DTD/svg11.dtd">
<svg width="100%" height="100%" viewBox="0 0 2400 1800" version="1.1" xmlns="http://www.w3.org/2000/svg" xmlns:xlink="http://www.w3.org/1999/xlink" xml:space="preserve" xmlns:serif="http://www.serif.com/" style="fill-rule:evenodd;clip-rule:evenodd;stroke-linecap:round;stroke-linejoin:round;stroke-miterlimit:1.5;">
    <g transform="matrix(0.666035,0.002009,-0.00257,0.961003,1715.528436,123.567833)">
        <path d="M498.853,591.35C498.853,591.35 739.482,930.39 739.482,1075.693C739.482,1167.736 631.66,1242.464 498.853,1242.464C366.046,1242.464 258.224,1167.736 258.224,1075.693C258.224,930.39 498.853,591.35 498.853,591.35Z" style="fill:rgb(170,220,255);stroke:rgb(214,234,248);stroke-width:1.21px;"/>
    </g>
    <g transform="matrix(1.791951,0.005405,-0.004957,1.853661,-65.21921,-2751.860378)">
        <path d="M149.705,1680.472L170.287,1680.472C170.287,1775.584 254.37,1852.687 358.093,1852.687C461.816,1852.687 545.899,1775.584 545.899,1680.472L566.481,1680.472C566.481,1786.007 473.183,1871.56 358.093,1871.56C243.004,1871.56 149.705,1786.007 149.705,1680.472Z" style="stroke:black;stroke-width:6.73px;"/>
    </g>
    <g transform="matrix(1.791951,0.005405,-0.004957,1.853661,1129.728079,-2748.256366)">
        <path d="M149.705,1680.472L170.287,1680.472C170.287,1775.584 254.37,1852.687 358.093,1852.687C461.816,1852.687 545.899,1775.584 545.899,1680.472L566.481,1680.472C566.481,1786.007 473.183,1871.56 358.093,1871.56C243.004,1871.56 149.705,1786.007 149.705,1680.472Z" style="stroke:black;stroke-width:6.73px;"/>
    </g>
    <g transform="matrix(-1.938685,0.525065,-0.543317,-2.262702,3199.392076,3533.941855)">
        <path d="M708.028,1093.84L718.233,1093.84C718.233,1189.82 802.386,1267.628 906.193,1267.628C940.661,1267.628 974.466,1258.864 1003.91,1242.296L1009.216,1250.357C978.173,1267.825 942.533,1277.064 906.193,1277.064C796.749,1277.064 708.028,1195.032 708.028,1093.84Z" style="stroke:black;stroke-width:5.73px;"/>
    </g>
</svg>
