<?xml version="1.0" encoding="UTF-8" standalone="no"?>
<!DOCTYPE svg PUBLIC "-//W3C//DTD SVG 1.1//EN" "http://www.w3.org/Graphics/SVG/1.1/DTD/svg11.dtd">
<svg width="100%" height="100%" viewBox="0 0 2400 1800" version="1.1" xmlns="http://www.w3.org/2000/svg" xmlns:xlink="http://www.w3.org/1999/xlink" xml:space="preserve" xmlns:serif="http://www.serif.com/" style="fill-rule:evenodd;clip-rule:evenodd;stroke-linecap:round;stroke-linejoin:round;stroke-miterlimit:1.5;">
    <g transform="matrix(1.210461,0,0,1.24594,-331.327476,-239.54243)">
        <ellipse cx="774.181" cy="822.784" rx="389.253" ry="359.764" style="fill:white;stroke:black;stroke-width:23.41px;"/>
    </g>
    <g transform="matrix(1.210461,0,0,1.24594,857.096341,-220.746189)">
        <ellipse cx="774.181" cy="822.784" rx="389.253" ry="359.764" style="fill:rgb(255,244,244);stroke:black;stroke-width:23.41px;"/>
    </g>
    <g transform="matrix(1.210461,0,0,1.24594,-24.349548,487.936109)">
        <ellipse cx="520.577" cy="238.905" rx="97.903" ry="99.083" style="stroke:black;stroke-width:23.41px;"/>
    </g>
    <g transform="matrix(1.210461,0,0,1.24594,1164.074269,506.73235)">
        <ellipse cx="520.577" cy="238.905" rx="97.903" ry="99.083" style="stroke:black;stroke-width:23.41px;"/>
    </g>
    <g transform="matrix(1.210461,0,0,0.980634,-307.991983,4.569687)">
        <path d="M1235.387,1140.084C1235.387,1140.084 1347.444,1286.012 1347.444,1348.553C1347.444,1424.894 1297.233,1486.873 1235.387,1486.873C1173.54,1486.873 1123.329,1424.894 1123.329,1348.553C1123.329,1286.012 1235.387,1140.084 1235.387,1140.084Z" style="stroke:black;stroke-width:26.1px;"/>
    </g>
</svg>
