<?xml version="1.0" encoding="UTF-8" standalone="no"?>
<!DOCTYPE svg PUBLIC "-//W3C//DTD SVG 1.1//EN" "http://www.w3.org/Graphics/SVG/1.1/DTD/svg11.dtd">
<svg width="100%" height="100%" viewBox="0 0 2400 1800" version="1.1" xmlns="http://www.w3.org/2000/svg" xmlns:xlink="http://www.w3.org/1999/xlink" xml:space="preserve" xmlns:serif="http://www.serif.com/" style="fill-rule:evenodd;clip-rule:evenodd;stroke-linecap:round;stroke-linejoin:round;stroke-miterlimit:1.5;">
    <g transform="matrix(1.296522,0,0,1.071762,-319.264848,26.670044)">
        <rect x="366.055" y="477.175" width="554.391" height="448.231" style="fill:white;stroke:white;stroke-width:24.17px;"/>
    </g>
    <g transform="matrix(1.582196,0,0,1.450031,-505.055353,-226.495358)">
        <rect x="366.055" y="477.175" width="554.391" height="448.231" style="fill:rgb(224,60,60);fill-opacity:0;stroke:rgb(112,16,16);stroke-width:18.94px;"/>
    </g>
    <g transform="matrix(0.864348,0,0,1.450031,634.871015,50.035479)">
        <clipPath id="_clip1">
            <rect x="366.055" y="429.846" width="575.533" height="59.841"/>
        </clipPath>
        <g clip-path="url(#_clip1)">
            <rect x="366.055" y="477.175" width="554.391" height="448.231" style="fill:rgb(224,60,60);fill-opacity:0;stroke:rgb(112,16,16);stroke-width:24.09px;"/>
        </g>
    </g>
    <g transform="matrix(1.582196,0,0,1.450031,869.559366,-226.495358)">
        <rect x="366.055" y="477.175" width="554.391" height="448.231" style="fill:rgb(224,60,60);fill-opacity:0;stroke:rgb(112,16,16);stroke-width:18.94px;"/>
    </g>
    <g transform="matrix(1.72137,0,0,1.711217,-653.462535,-415.717707)">
        <rect x="599.607" y="557.384" width="287.811" height="238.27" style="stroke:white;stroke-width:16.75px;"/>
    </g>
    <g transform="matrix(1.296522,0,0,1.071762,1053.319421,26.670044)">
        <rect x="366.055" y="477.175" width="554.391" height="448.231" style="fill:white;stroke:white;stroke-width:24.17px;"/>
    </g>
    <g transform="matrix(1.72137,0,0,1.711217,719.121734,-415.717707)">
        <rect x="599.607" y="557.384" width="287.811" height="238.27" style="stroke:white;stroke-width:16.75px;"/>
    </g>
    <g transform="matrix(1.72137,0,0,0.236938,-701.178112,1052.710058)">
        <rect x="821.363" y="1097.62" width="566.186" height="92.005" style="stroke:black;stroke-width:23.4px;"/>
    </g>
</svg>
