<?xml version="1.0" encoding="UTF-8" standalone="no"?>
<!DOCTYPE svg PUBLIC "-//W3C//DTD SVG 1.1//EN" "http://www.w3.org/Graphics/SVG/1.1/DTD/svg11.dtd">
<svg width="100%" height="100%" viewBox="0 0 2400 1800" version="1.1" xmlns="http://www.w3.org/2000/svg" xmlns:xlink="http://www.w3.org/1999/xlink" xml:space="preserve" xmlns:serif="http://www.serif.com/" style="fill-rule:evenodd;clip-rule:evenodd;stroke-linecap:round;stroke-linejoin:round;stroke-miterlimit:1.5;">
    <g transform="matrix(2.014769,0,0,2.320446,-955.89243,-1233.161242)">
        <ellipse cx="730.517" cy="938.762" rx="225.774" ry="117.495" style="fill:rgb(242,205,205);stroke:black;stroke-opacity:0;stroke-width:1.92px;"/>
    </g>
    <g transform="matrix(2.014769,0,0,2.320446,-955.89243,-1233.161242)">
        <path d="M620.929,868.707C615.355,874.282 561.952,927.685 554.874,941.84C545.438,960.712 516.204,989.947 512.41,993.74" style="fill:none;stroke:rgb(226,132,132);stroke-width:11.31px;"/>
    </g>
    <g transform="matrix(2.014769,0,0,2.320446,-955.89243,-1233.161242)">
        <path d="M703.498,878.144C694.821,904.175 653.957,958.353 653.957,958.353C648.35,969.566 609.039,1029.316 616.211,1014.972" style="fill:none;stroke:rgb(226,132,132);stroke-width:11.31px;"/>
    </g>
    <g transform="matrix(2.014769,0,0,2.320446,-955.89243,-1233.161242)">
        <path d="M788.426,894.657C772.589,926.331 775.053,926.512 755.399,955.994C719.381,1010.02 726.312,1013.39 722.371,1017.331" style="fill:none;stroke:rgb(226,132,132);stroke-width:11.31px;"/>
    </g>
    <g transform="matrix(2.014769,0,0,2.320446,-955.89243,-1233.161242)">
        <path d="M899.304,911.171C896.022,914.454 897.39,914.999 873.354,963.072C871.089,967.601 845.045,1019.69 845.045,1019.69" style="fill:none;stroke:rgb(226,132,132);stroke-width:11.31px;"/>
    </g>
    <g transform="matrix(2.014769,0,0,2.320446,412.245011,-1206.859517)">
        <ellipse cx="730.517" cy="938.762" rx="225.774" ry="117.495" style="fill:rgb(242,205,205);stroke:black;stroke-opacity:0;stroke-width:1.92px;"/>
    </g>
    <g transform="matrix(2.014769,0,0,2.320446,1087.921617,-1152.336789)">
        <path d="M620.929,868.707C615.355,874.282 561.952,927.685 554.874,941.84C545.438,960.712 516.204,989.947 512.41,993.74" style="fill:none;stroke:rgb(226,132,132);stroke-width:11.31px;"/>
    </g>
    <g transform="matrix(2.014769,0,0,2.320446,702.924087,-1190.482943)">
        <path d="M703.498,878.144C694.821,904.175 653.957,958.353 653.957,958.353C648.35,969.566 609.039,1029.316 616.211,1014.972" style="fill:none;stroke:rgb(226,132,132);stroke-width:11.31px;"/>
    </g>
    <g transform="matrix(2.014769,0,0,2.320446,314.584565,-1212.552771)">
        <path d="M788.426,894.657C772.589,926.331 775.053,926.512 755.399,955.994C719.381,1010.02 726.312,1013.39 722.371,1017.331" style="fill:none;stroke:rgb(226,132,132);stroke-width:11.31px;"/>
    </g>
    <g transform="matrix(2.014769,0,0,2.320446,-103.535823,-1251.251696)">
        <path d="M899.304,911.171C896.022,914.454 897.39,914.999 873.354,963.072C871.089,967.601 845.045,1019.69 845.045,1019.69" style="fill:none;stroke:rgb(226,132,132);stroke-width:11.31px;"/>
    </g>
    <g transform="matrix(1.384038,0,0,1.621671,961.487077,89.809783)">
        <ellipse cx="384.945" cy="436.53" rx="115.191" ry="103.672" style="fill:rgb(10,10,10);stroke:black;stroke-width:2.76px;"/>
    </g>
    <g transform="matrix(1.384038,0,0,1.621671,323.760652,89.809783)">
        <ellipse cx="384.945" cy="436.53" rx="115.191" ry="103.672" style="fill:rgb(10,10,10);stroke:black;stroke-width:2.76px;"/>
    </g>
    <g transform="matrix(1,0,0,1,-136.315328,47.186749)">
        <ellipse cx="937.653" cy="750.531" rx="305.049" ry="294.888" style="fill:rgb(242,205,205);fill-opacity:0;stroke:rgb(132,168,226);stroke-width:24.58px;"/>
    </g>
    <g transform="matrix(0.816482,0,0,1,403.588556,264.224582)">
        <clipPath id="_clip1">
            <rect x="861.437" y="455.642" width="114.627" height="110.878"/>
        </clipPath>
        <g clip-path="url(#_clip1)">
            <ellipse cx="937.653" cy="750.531" rx="305.049" ry="294.888" style="fill:rgb(242,205,205);fill-opacity:0;stroke:rgb(132,168,226);stroke-width:26.93px;"/>
        </g>
    </g>
    <g transform="matrix(0.816482,0,0,1,403.588556,277.224582)">
        <clipPath id="_clip2">
            <rect x="861.437" y="455.642" width="114.627" height="110.878"/>
        </clipPath>
        <g clip-path="url(#_clip2)">
            <ellipse cx="937.653" cy="750.531" rx="305.049" ry="294.888" style="fill:rgb(242,205,205);fill-opacity:0;stroke:rgb(132,168,226);stroke-width:26.93px;"/>
        </g>
    </g>
    <g transform="matrix(0.816482,0,0,1,393.86183,280.224582)">
        <clipPath id="_clip3">
            <rect x="861.437" y="455.642" width="114.627" height="110.878"/>
        </clipPath>
        <g clip-path="url(#_clip3)">
            <ellipse cx="937.653" cy="750.531" rx="305.049" ry="294.888" style="fill:rgb(242,205,205);fill-opacity:0;stroke:rgb(132,168,226);stroke-width:26.93px;"/>
        </g>
    </g>
    <g transform="matrix(0.816482,0,0,1,408.451919,280.224582)">
        <clipPath id="_clip4">
            <rect x="861.437" y="455.642" width="114.627" height="110.878"/>
        </clipPath>
        <g clip-path="url(#_clip4)">
            <ellipse cx="937.653" cy="750.531" rx="305.049" ry="294.888" style="fill:rgb(242,205,205);fill-opacity:0;stroke:rgb(132,168,226);stroke-width:26.93px;"/>
        </g>
    </g>
    <g transform="matrix(0.816482,0,0,1,408.451919,293.224582)">
        <clipPath id="_clip5">
            <rect x="861.437" y="455.642" width="114.627" height="110.878"/>
        </clipPath>
        <g clip-path="url(#_clip5)">
            <ellipse cx="937.653" cy="750.531" rx="305.049" ry="294.888" style="fill:rgb(242,205,205);fill-opacity:0;stroke:rgb(132,168,226);stroke-width:26.93px;"/>
        </g>
    </g>
    <g transform="matrix(0.816482,0,0,1,398.725193,293.224582)">
        <clipPath id="_clip6">
            <rect x="861.437" y="455.642" width="114.627" height="110.878"/>
        </clipPath>
        <g clip-path="url(#_clip6)">
            <ellipse cx="937.653" cy="750.531" rx="305.049" ry="294.888" style="fill:rgb(242,205,205);fill-opacity:0;stroke:rgb(132,168,226);stroke-width:26.93px;"/>
        </g>
    </g>
    <g transform="matrix(1,0,0,1,556.612859,47.186749)">
        <ellipse cx="937.653" cy="750.531" rx="305.049" ry="294.888" style="fill:rgb(242,205,205);fill-opacity:0;stroke:rgb(132,168,226);stroke-width:24.58px;"/>
    </g>
    <path d="M1116.412,770.283C1119.639,767.055 1168.912,764.718 1179.232,769.878C1179.244,769.883 1177.496,767.895 1183.488,770.891C1183.804,771.049 1183.779,770.935 1184.095,771.093C1184.433,771.262 1184.244,771.37 1184.501,771.499" style="fill:none;stroke:rgb(132,168,226);stroke-width:3.75px;"/>
    <path d="M1182.88,763.19C1162.449,756.38 1125.554,756.081 1152.483,758.529C1167.865,759.928 1167.892,759.037 1183.082,761.569C1148.377,763.497 1138.92,760.304 1144.377,760.758C1168.744,762.789 1188.728,768.044 1175.382,763.596C1174.632,763.346 1135.806,757.982 1132.826,760.961C1132.736,761.051 1128.611,762.191 1132.826,763.596C1138.404,765.455 1141.949,763.886 1149.24,764.203C1149.752,764.226 1160.659,764.7 1155.522,762.988C1155.343,762.928 1136.407,762.008 1134.447,762.988C1131.205,764.609 1130.48,764.609 1130.8,764.609C1152.754,764.609 1152.709,764.367 1174.571,765.825C1176.395,765.946 1183.151,767.297 1183.893,767.446C1183.986,767.465 1184.028,767.581 1184.095,767.648" style="fill:none;stroke:rgb(132,168,226);stroke-width:3.75px;"/>
    <path d="M1151.205,730.252C1155.289,734.337 1171.305,736.282 1180.89,731.489C1181.768,731.05 1156.051,724.92 1167.284,733.344C1170.18,735.516 1182.836,737.764 1180.89,735.818C1178.604,733.532 1178.139,734.444 1159.245,732.726C1165.841,732.932 1172.438,733.138 1179.034,733.344C1164.951,732.758 1164.69,732.228 1163.574,733.344C1161.296,735.622 1188.142,733.963 1191.403,733.963C1193.395,733.963 1148.731,733.963 1167.284,740.147C1172.01,741.722 1178.07,739.702 1173.468,742.002C1168.862,744.306 1140.463,743.182 1162.955,748.805C1178.45,752.679 1179.185,750.298 1183.982,751.897C1197.645,756.452 1180.486,750.736 1166.047,749.424C1183.871,749.424 1186.009,749.275 1184.6,748.805C1184.345,748.72 1159.556,744.169 1161.718,746.331C1164.347,748.96 1177.051,749.937 1178.416,750.042" style="fill:none;stroke:rgb(132,168,226);stroke-width:3.75px;"/>
</svg>
