<?xml version="1.0" encoding="UTF-8" standalone="no"?><!DOCTYPE svg PUBLIC "-//W3C//DTD SVG 1.1//EN" "http://www.w3.org/Graphics/SVG/1.1/DTD/svg11.dtd"><svg width="100%" height="100%" viewBox="0 0 432 288" version="1.1" xmlns="http://www.w3.org/2000/svg" xmlns:xlink="http://www.w3.org/1999/xlink" xml:space="preserve" xmlns:serif="http://www.serif.com/" style="fill-rule:evenodd;clip-rule:evenodd;stroke-linejoin:round;stroke-miterlimit:2;"><path d="M221.868,202.863l-83.728,0c-4.439,-4.849 -7.257,-10.349 -7.257,-15.948c0,-17.603 22.664,-31.895 50.579,-31.895c27.915,0 50.579,14.292 50.579,31.895c0,5.599 -5.734,11.099 -10.173,15.948Zm-2.888,-6.039c3.802,-3.644 5.804,-7.777 5.804,-11.984c0,-13.229 -19.412,-23.969 -43.322,-23.969c-23.91,0 -43.322,10.74 -43.322,23.969c0,4.207 0.114,6.831 5.804,11.984l75.036,-0Z" style="fill:#383838;"/><path d="M225.266,202.863l-87.606,0c-4.439,-4.849 -6.776,-10.349 -6.776,-15.948c0,-17.603 22.664,-31.895 50.579,-31.895c27.915,0 50.579,14.292 50.579,31.895c0,5.599 -2.337,11.099 -6.776,15.948Z" style="fill-opacity:0;"/><path d="M218.981,196.823l-75.036,0c-3.802,-3.644 -5.804,-7.777 -5.804,-11.984c0,-13.229 19.412,-23.969 43.322,-23.969c23.91,0 43.322,10.74 43.322,23.969c0,4.207 -2.002,8.341 -5.804,11.984Z" style="fill-opacity:0;"/><path d="M221.868,202.863l-83.728,0c-4.439,-4.849 -7.257,-10.349 -7.257,-15.948c0,-17.603 22.664,-31.895 50.579,-31.895c27.915,0 50.579,14.292 50.579,31.895c0,5.599 -5.734,11.099 -10.173,15.948Zm-2.888,-6.039c3.802,-3.644 5.804,-7.777 5.804,-11.984c0,-13.229 -19.412,-23.969 -43.322,-23.969c-23.91,0 -43.322,10.74 -43.322,23.969c0,4.207 0.114,6.831 5.804,11.984l75.036,-0Z" style="fill:#383838;"/><path d="M225.266,202.863l-87.606,0c-4.439,-4.849 -6.776,-10.349 -6.776,-15.948c0,-17.603 22.664,-31.895 50.579,-31.895c27.915,0 50.579,14.292 50.579,31.895c0,5.599 -2.337,11.099 -6.776,15.948Z" style="fill-opacity:0;"/><path d="M218.981,196.823l-75.036,0c-3.802,-3.644 -5.804,-7.777 -5.804,-11.984c0,-13.229 19.412,-23.969 43.322,-23.969c23.91,0 43.322,10.74 43.322,23.969c0,4.207 -2.002,8.341 -5.804,11.984Z" style="fill-opacity:0;"/><g><clipPath id="_clip1"><rect x="235.439" y="155.02" width="52.844" height="63.79"/></clipPath><g clip-path="url(#_clip1)"><path d="M278.11,202.863l-83.728,0c-4.439,-4.849 -7.257,-10.349 -7.257,-15.948c0,-17.603 22.664,-31.895 50.579,-31.895c27.915,0 50.579,14.292 50.579,31.895c0,5.599 -5.734,11.099 -10.173,15.948Zm-2.888,-6.039c3.802,-3.644 5.804,-7.777 5.804,-11.984c0,-13.229 -19.412,-23.969 -43.322,-23.969c-23.91,0 -43.322,10.74 -43.322,23.969c0,4.207 0.114,6.831 5.804,11.984l75.036,-0Z" style="fill:#383838;"/><path d="M281.507,202.863l-87.606,0c-4.439,-4.849 -6.776,-10.349 -6.776,-15.948c0,-17.603 22.664,-31.895 50.579,-31.895c27.915,0 50.579,14.292 50.579,31.895c0,5.599 -2.337,11.099 -6.776,15.948Z" style="fill-opacity:0;"/><path d="M275.222,196.823l-75.036,0c-3.802,-3.644 -5.804,-7.777 -5.804,-11.984c0,-13.229 19.412,-23.969 43.322,-23.969c23.91,0 43.322,10.74 43.322,23.969c0,4.207 -2.002,8.341 -5.804,11.984Z" style="fill-opacity:0;"/><path d="M278.11,202.863l-83.728,0c-4.439,-4.849 -7.257,-10.349 -7.257,-15.948c0,-17.603 22.664,-31.895 50.579,-31.895c27.915,0 50.579,14.292 50.579,31.895c0,5.599 -5.734,11.099 -10.173,15.948Zm-2.888,-6.039c3.802,-3.644 5.804,-7.777 5.804,-11.984c0,-13.229 -19.412,-23.969 -43.322,-23.969c-23.91,0 -43.322,10.74 -43.322,23.969c0,4.207 0.114,6.831 5.804,11.984l75.036,-0Z" style="fill:#383838;"/><path d="M281.507,202.863l-87.606,0c-4.439,-4.849 -6.776,-10.349 -6.776,-15.948c0,-17.603 22.664,-31.895 50.579,-31.895c27.915,0 50.579,14.292 50.579,31.895c0,5.599 -2.337,11.099 -6.776,15.948Z" style="fill-opacity:0;"/><path d="M275.222,196.823l-75.036,0c-3.802,-3.644 -5.804,-7.777 -5.804,-11.984c0,-13.229 19.412,-23.969 43.322,-23.969c23.91,0 43.322,10.74 43.322,23.969c0,4.207 -2.002,8.341 -5.804,11.984Z" style="fill-opacity:0;"/></g></g><path d="M213.361,138.969l5.413,-3.937c6.706,9.22 19.412,11.407 28.381,4.884c8.963,-6.519 10.799,-19.291 4.098,-28.505c-6.706,-9.22 -19.412,-11.407 -28.381,-4.884l-4.047,-5.565c11.959,-8.697 28.901,-5.782 37.842,6.512c8.935,12.285 6.486,29.316 -5.464,38.007c-11.959,8.697 -28.901,5.782 -37.842,-6.512Z" style="fill:#383838;"/><path d="M181.463,92.362c15.937,0 28.875,12.262 28.875,27.366c0,15.104 -12.939,27.366 -28.875,27.366c-15.937,0 -28.875,-12.262 -28.875,-27.366c0,-15.104 12.939,-27.366 28.875,-27.366Zm0,6.841c11.953,0 21.657,9.197 21.657,20.524c0,11.328 -9.704,20.524 -21.657,20.524c-11.953,0 -21.657,-9.197 -21.657,-20.524c0,-11.328 9.704,-20.524 21.657,-20.524Z" style="fill:#383838;"/></svg>